<svg width="28" height="28" viewBox="0 0 28 28" fill="none" xmlns="http://www.w3.org/2000/svg">
<path fill-rule="evenodd" clip-rule="evenodd" d="M11.2687 0.269012C13.9845 -0.271181 16.7994 0.00606595 19.3576 1.06569C21.9157 2.12532 24.1022 3.91973 25.6406 6.22202C27.1789 8.52431 28 11.2311 28 14C28 17.713 26.525 21.274 23.8995 23.8995C21.274 26.525 17.713 28 14 28C11.2311 28 8.52431 27.1789 6.22202 25.6406C3.91973 24.1022 2.12532 21.9157 1.06569 19.3576C0.00606595 16.7994 -0.271181 13.9845 0.269012 11.2687C0.809205 8.55301 2.14258 6.05844 4.10051 4.10051C6.05844 2.14258 8.553 0.809205 11.2687 0.269012ZM18.3835 3.41739C16.2904 2.55042 13.9873 2.32358 11.7653 2.76556C9.54337 3.20753 7.50237 4.29847 5.90042 5.90042C4.29847 7.50237 3.20753 9.54337 2.76556 11.7653C2.32358 13.9873 2.55042 16.2904 3.41739 18.3835C4.28435 20.4765 5.75251 22.2655 7.6362 23.5241C9.51989 24.7827 11.7345 25.4545 14 25.4545C17.0379 25.4545 19.9514 24.2477 22.0996 22.0996C24.2477 19.9514 25.4545 17.0379 25.4545 14C25.4545 11.7345 24.7827 9.51989 23.5241 7.6362C22.2655 5.75251 20.4765 4.28435 18.3835 3.41739Z" fill="#917F59"/>
</svg>
