<svg width="31" height="28" viewBox="0 0 31 28" fill="none" xmlns="http://www.w3.org/2000/svg">
<path fill-rule="evenodd" clip-rule="evenodd" d="M0.000811332 8.21374C0.0462943 3.77747 3.57057 0 8.10031 0C10.8807 0 12.9259 1.37627 14.231 2.67208C14.5944 3.03289 14.9062 3.39278 15.1674 3.72463C15.4285 3.39278 15.7404 3.03289 16.1038 2.67208C17.4089 1.37627 19.4541 0 22.2344 0C26.7642 0 30.2884 3.77747 30.3339 8.21374L30.3339 8.21407C30.4202 16.8664 23.4679 22.8523 16.4799 27.5959C16.0928 27.8592 15.6355 28 15.1674 28C14.6992 28 14.2419 27.8592 13.8549 27.5959C6.86607 22.8523 -0.0862456 16.8664 0.000809107 8.21396L0.000811332 8.21374ZM16.2094 6.35793C16.0113 6.75152 15.6082 6.99998 15.1674 6.99998C14.7266 6.99998 14.3235 6.75154 14.1253 6.35798C14.1251 6.3575 14.1246 6.35657 14.1239 6.3552C14.1225 6.35244 14.1201 6.3479 14.1168 6.34166C14.1151 6.33835 14.1131 6.33456 14.1108 6.33031C14.0977 6.30574 14.0759 6.2657 14.0454 6.2124C13.9843 6.10566 13.8888 5.94668 13.7592 5.75291C13.4986 5.36342 13.107 4.84419 12.587 4.32789C11.542 3.29038 10.0537 2.33333 8.10031 2.33333C4.93597 2.33333 2.3674 4.99279 2.33402 8.23744M16.2094 6.35793C16.2097 6.35743 16.2101 6.35652 16.2108 6.3552C16.213 6.35097 16.2174 6.34258 16.2239 6.33031C16.237 6.30574 16.2589 6.2657 16.2894 6.2124C16.3505 6.10566 16.4459 5.94668 16.5756 5.75291C16.8361 5.36342 17.2277 4.84419 17.7477 4.32789C18.7927 3.29038 20.2811 2.33333 22.2344 2.33333C25.3987 2.33333 27.9673 4.99273 28.0007 8.23733C28.0734 15.5285 22.2178 20.8809 15.1684 25.666L15.1674 25.6667L15.1663 25.6659C8.1162 20.8809 2.26078 15.5286 2.33401 8.23766" fill="#917F59"/>
</svg>
