<svg width="28" height="28" viewBox="0 0 28 28" fill="none" xmlns="http://www.w3.org/2000/svg">
<circle cx="14" cy="14" r="14" fill="#917F59"/>
<path d="M11.9412 12.7437C11.9412 11.3197 13.0868 10.1652 14.5 10.1652C15.9132 10.1652 17.0588 11.3197 17.0588 12.7437C17.0588 14.1678 15.9132 15.3222 14.5 15.3222C13.0868 15.3222 11.9412 14.1678 11.9412 12.7437Z" fill="white"/>
<path fill-rule="evenodd" clip-rule="evenodd" d="M8.02315 11.8531C8.2937 8.54551 11.0366 6 14.33 6H14.67C17.9634 6 20.7063 8.54551 20.9769 11.8531C21.1225 13.6339 20.5766 15.4021 19.4542 16.7854L15.6805 21.436C15.0704 22.188 13.9296 22.188 13.3195 21.436L9.54581 16.7854C8.42336 15.4021 7.87748 13.6339 8.02315 11.8531ZM14.5 8.97517C12.4346 8.97517 10.7602 10.6624 10.7602 12.7437C10.7602 14.825 12.4346 16.5123 14.5 16.5123C16.5654 16.5123 18.2397 14.825 18.2397 12.7437C18.2397 10.6624 16.5654 8.97517 14.5 8.97517Z" fill="white"/>
</svg>
