<svg width="246" height="57" viewBox="0 0 246 57" fill="none" xmlns="http://www.w3.org/2000/svg">
<path d="M125.631 55.3124C91.7983 56.9641 60.8505 55.4101 38.1669 51.5654C26.8232 49.6427 17.5591 47.1493 11.0371 44.2046C7.77587 42.7321 5.21185 41.1519 3.41701 39.4829C1.62267 37.8143 0.611585 36.0713 0.419295 34.2691C0.227304 32.4698 0.85618 30.6541 2.27205 28.8358C3.68989 27.015 5.88756 25.2049 8.80065 23.4319C14.6263 19.8863 23.2624 16.5196 34.08 13.515C55.7109 7.50717 86.0073 2.96299 119.84 1.31121C153.673 -0.340557 184.62 1.21353 207.304 5.0582C218.648 6.98085 227.912 9.47425 234.434 12.419C237.695 13.8915 240.259 15.4717 242.054 17.1407C243.848 18.8093 244.859 20.5523 245.052 22.3545C245.244 24.1538 244.615 25.9695 243.199 27.7878C241.781 29.6086 239.583 31.4187 236.67 33.1917C230.845 36.7373 222.209 40.104 211.391 43.1086C189.76 49.1164 159.464 53.6606 125.631 55.3124Z" stroke="#7D826C" stroke-width="0.5"/>
</svg>
