<svg width="46" height="46" viewBox="0 0 46 46" fill="none" xmlns="http://www.w3.org/2000/svg">
<circle cx="23" cy="23.1001" r="22.5" fill="#917F59"/>
<path fill-rule="evenodd" clip-rule="evenodd" d="M15.5359 16.9296L16.0814 21.6218L14.9775 21.706C13.438 21.8235 12.1809 22.9294 11.9314 24.386C11.3562 27.7429 11.3562 31.1668 11.9314 34.5237C12.1809 35.9803 13.438 37.0862 14.9775 37.2036L17.3566 37.3852C21.1129 37.6717 24.8871 37.6717 28.6434 37.3852L31.0225 37.2036C32.562 37.0862 33.8191 35.9803 34.0686 34.5237C34.6438 31.1668 34.6438 27.7429 34.0686 24.386C33.8191 22.9294 32.562 21.8235 31.0225 21.706L29.9184 21.6218L30.464 16.9296C30.5283 16.3764 30.5283 15.8182 30.464 15.265L30.4278 14.9537C30.0437 11.6507 27.3267 9.03731 23.8731 8.64902C23.293 8.58379 22.7068 8.58379 22.1267 8.64902C18.6731 9.03731 15.9561 11.6507 15.5721 14.9537L15.5359 15.265C15.4716 15.8182 15.4716 16.3764 15.5359 16.9296ZM23.5944 10.913C23.1995 10.8686 22.8004 10.8686 22.4054 10.913C20.0541 11.1773 18.2042 12.9566 17.9428 15.2054L17.9066 15.5168C17.8617 15.9026 17.8617 16.292 17.9066 16.6778L18.4613 21.4485C21.4839 21.2633 24.5159 21.2633 27.5386 21.4485L28.0932 16.6778C28.1381 16.292 28.1381 15.9026 28.0932 15.5168L28.057 15.2054C27.7956 12.9566 25.9458 11.1773 23.5944 10.913ZM23 27.1753C21.6826 27.1753 20.6147 28.1959 20.6147 29.4548C20.6147 30.7138 21.6826 31.7344 23 31.7344C24.3173 31.7344 25.3853 30.7138 25.3853 29.4548C25.3853 28.1959 24.3173 27.1753 23 27.1753Z" fill="white"/>
</svg>
