<svg width="16" height="16" viewBox="0 0 16 16" fill="none" xmlns="http://www.w3.org/2000/svg">
<path d="M1.07911 6.63651C2.87131 10.5422 6.06032 13.6475 10.0251 15.3309L10.6607 15.6142C12.1147 16.2624 13.824 15.77 14.7109 14.4473L15.5414 13.2086C15.8114 12.8059 15.7292 12.2635 15.352 11.959L12.5354 9.68534C12.1216 9.35139 11.5133 9.42917 11.1968 9.85649L10.3255 11.033C8.08959 9.9294 6.27433 8.11307 5.17142 5.87589L6.34719 5.00404C6.77426 4.68736 6.852 4.07865 6.51824 3.6647L4.24584 0.846293C3.94158 0.468926 3.39963 0.386611 2.99716 0.656637L1.7507 1.49291C0.420532 2.38533 -0.0689296 4.10976 0.593871 5.56854L1.07838 6.63492L1.07911 6.63651Z" fill="white"/>
</svg>
