<svg width="46" height="46" viewBox="0 0 46 46" fill="none" xmlns="http://www.w3.org/2000/svg">
<circle cx="23" cy="23.1001" r="22.5" fill="#917F59"/>
<path d="M33.7337 16.1985C34.1436 16.5342 34.4848 16.9505 34.7328 17.4245C34.8113 17.5745 34.7525 17.7561 34.6079 17.8451L25.9929 23.1466C24.1452 24.2836 21.8155 24.3074 19.9446 23.2085L11.2721 18.1142C11.1319 18.0319 11.0676 17.8624 11.1308 17.7133C11.3818 17.1205 11.7731 16.6035 12.2626 16.2016L12.2621 16.1975L12.279 16.1882C12.6412 15.8941 13.0565 15.6626 13.508 15.5095L19.1586 12.3889C21.5463 11.0702 24.4495 11.0702 26.8372 12.3889L32.4812 15.5058C32.9406 15.6601 33.3627 15.8955 33.7299 16.1955L33.7337 16.1985Z" fill="white"/>
<path d="M10.6107 20.6643C10.6357 20.4179 10.9093 20.2824 11.1237 20.4083L18.8955 24.9735C21.4266 26.4603 24.5786 26.428 27.0784 24.8897L34.8391 20.114C35.0525 19.9826 35.3308 20.1157 35.3578 20.3638C35.7428 23.9001 35.6689 27.4735 35.1361 30.9957C34.8631 32.8 33.3818 34.1831 31.5533 34.3412L29.4769 34.5206C25.1671 34.893 20.8329 34.893 16.5232 34.5206L14.4468 34.3412C12.6182 34.1831 11.1369 32.8 10.864 30.9957C10.3463 27.5732 10.2618 24.1025 10.6107 20.6643Z" fill="white"/>
</svg>
