<svg width="15" height="14" viewBox="0 0 15 14" fill="none" xmlns="http://www.w3.org/2000/svg">
<path fill-rule="evenodd" clip-rule="evenodd" d="M12.7194 12.5126L12.72 12.5113L12.7331 12.4784L15 1.04937V1.01225C15 0.727484 14.8948 0.478888 14.6658 0.329772C14.4654 0.199251 14.235 0.189956 14.0735 0.202217C13.9026 0.215185 13.7415 0.257832 13.63 0.293331C13.5726 0.311594 13.5246 0.329191 13.4903 0.3425C13.473 0.34918 13.4591 0.354848 13.4489 0.359072L13.4389 0.363272L0.799807 5.32141L0.796328 5.32265C0.789502 5.32514 0.780475 5.32851 0.769572 5.33275C0.747835 5.34121 0.718248 5.35332 0.68349 5.36907C0.615243 5.4 0.520951 5.44773 0.425323 5.51322C0.262908 5.62444 -0.0463557 5.88775 0.00586597 6.3052C0.0491211 6.65097 0.28747 6.87057 0.448158 6.98426C0.534296 7.04521 0.616703 7.08916 0.677048 7.11789C0.707624 7.13245 0.733597 7.1436 0.752938 7.15147C0.762636 7.15542 0.770744 7.15858 0.777018 7.16096L0.78505 7.16396L0.790185 7.16586L3.00148 7.91031C2.99402 8.04905 3.00778 8.19052 3.04457 8.33009L4.15223 12.5319C4.28356 13.0301 4.73427 13.3771 5.2495 13.3768C5.71132 13.3764 6.12091 13.097 6.29491 12.6802L8.02425 10.8311L10.9943 13.1082L11.0365 13.1266C11.3064 13.2444 11.5585 13.2817 11.789 13.2502C12.0192 13.2187 12.2021 13.1222 12.3395 13.0123C12.4747 12.9041 12.5674 12.782 12.6256 12.6901C12.6552 12.6434 12.6773 12.6024 12.6926 12.5715C12.7003 12.556 12.7064 12.5428 12.7109 12.5326L12.7166 12.5194L12.7186 12.5146L12.7194 12.5126ZM4.14098 8.04104C4.1158 7.94554 4.15532 7.84473 4.23869 7.79179L11.7391 3.02871C11.7391 3.02871 12.1803 2.76088 12.1645 3.02871C12.1645 3.02871 12.2432 3.076 12.0068 3.29653C11.7826 3.50598 6.66109 8.4506 6.14287 8.95094C6.11295 8.97983 6.0951 9.01295 6.08456 9.05318L5.24864 12.2428L4.14098 8.04104Z" fill="white"/>
</svg>
