<svg width="15" height="13" viewBox="0 0 15 13" fill="none" xmlns="http://www.w3.org/2000/svg">
<path d="M3.64472 0.365493C6.21007 0.142492 8.78993 0.142492 11.3553 0.365493L12.5912 0.472932C13.414 0.544455 14.1187 1.03522 14.4838 1.73721C14.5305 1.82702 14.4955 1.93575 14.4094 1.98903L9.28147 5.16349C8.18167 5.84432 6.7949 5.8586 5.68131 5.20057L0.519068 2.15016C0.435667 2.10088 0.397384 1.99943 0.434971 1.91014C0.769001 1.11666 1.51998 0.550193 2.40877 0.472932L3.64472 0.365493Z" fill="white"/>
<path d="M0.43077 3.52386C0.303132 3.44844 0.14027 3.52961 0.125392 3.67711C-0.0822617 5.73587 -0.0320038 7.81412 0.276166 9.86345C0.438627 10.9438 1.32036 11.7721 2.40877 11.8667L3.64472 11.9741C6.21007 12.1971 8.78993 12.1971 11.3553 11.9741L12.5912 11.8667C13.6796 11.7721 14.5614 10.9438 14.7238 9.86345C15.041 7.75441 15.085 5.61472 14.8558 3.49718C14.8397 3.34863 14.6741 3.26896 14.547 3.34761L9.92762 6.20726C8.43965 7.12838 6.56343 7.14771 5.0568 6.25743L0.43077 3.52386Z" fill="white"/>
</svg>
