<svg width="30" height="38" viewBox="0 0 30 38" fill="none" xmlns="http://www.w3.org/2000/svg">
<path d="M15.0096 37C14.9671 37.0003 14.925 36.9906 14.887 36.9717C14.849 36.9528 14.8159 36.9252 14.7906 36.8912L1.05567 18.1054C1.01956 18.0585 1 18.0012 1 17.9422C1 17.8831 1.01956 17.8258 1.05567 17.7789L14.7943 1.09334C14.8203 1.06401 14.8523 1.04051 14.8882 1.02442C14.9241 1.00833 14.9629 1 15.0023 1C15.0416 1 15.0805 1.00833 15.1164 1.02442C15.1523 1.04051 15.1843 1.06401 15.2103 1.09334L28.9453 17.7789C28.9808 17.826 29 17.8833 29 17.9422C29 18.001 28.9808 18.0583 28.9453 18.1054L15.2066 36.9021C15.1827 36.9314 15.1528 36.9553 15.1188 36.9722C15.0848 36.9891 15.0476 36.9986 15.0096 37ZM1.61032 17.9458L15.0096 36.2818L28.4089 17.9458L15.0096 1.67371L1.61032 17.9458Z" fill="#917F59"/>
<path d="M1.32573 17.7643L15.0899 21.6926H14.9366L28.6826 17.7026C28.713 17.6938 28.7449 17.691 28.7764 17.6945C28.8079 17.6979 28.8384 17.7074 28.8662 17.7226C28.894 17.7378 28.9185 17.7582 28.9383 17.7828C28.9582 17.8074 28.9729 17.8356 28.9818 17.8658C28.9907 17.8961 28.9934 17.9278 28.99 17.9591C28.9865 17.9904 28.9769 18.0207 28.9617 18.0484C28.9464 18.076 28.9258 18.1003 28.9011 18.1201C28.8764 18.1398 28.848 18.1545 28.8176 18.1633L15.0863 22.2041C15.0362 22.2186 14.983 22.2186 14.933 22.2041L1.21991 18.1052C1.17413 18.091 1.13582 18.0594 1.11329 18.0173C1.09075 17.9752 1.08579 17.926 1.09949 17.8803C1.10654 17.8579 1.11801 17.837 1.13324 17.819C1.14846 17.8009 1.16714 17.7861 1.18819 17.7753C1.20924 17.7645 1.23224 17.7579 1.25585 17.756C1.27946 17.7542 1.30322 17.7569 1.32573 17.7643Z" fill="#917F59"/>
<path d="M15.0096 37C14.9386 37 14.8705 36.9721 14.8199 36.9226C14.7694 36.873 14.7405 36.8057 14.7396 36.7351V1.25286C14.7473 1.18751 14.7788 1.12724 14.8283 1.0835C14.8777 1.03976 14.9416 1.01559 15.0078 1.01559C15.074 1.01559 15.1379 1.03976 15.1873 1.0835C15.2367 1.12724 15.2683 1.18751 15.276 1.25286V36.7351C15.276 36.8053 15.2479 36.8727 15.198 36.9224C15.148 36.972 15.0802 37 15.0096 37Z" fill="#917F59"/>
<path d="M11.1781 21.0541C11.1227 21.0544 11.0691 21.0341 11.028 20.9972C10.9868 20.9603 10.961 20.9094 10.9555 20.8546L10.1345 12.5735C10.1294 12.5153 10.1476 12.4575 10.1852 12.4127C10.2228 12.3679 10.2767 12.3396 10.3352 12.3341C10.3935 12.3289 10.4516 12.3465 10.4972 12.383C10.5428 12.4195 10.5723 12.4722 10.5797 12.53L11.4007 20.8111C11.4058 20.8696 11.3877 20.9278 11.3502 20.9733C11.3127 21.0187 11.2588 21.0477 11.2 21.0541H11.1781Z" fill="#917F59"/>
<path d="M5.94542 19.5235C5.90251 19.5238 5.86051 19.5112 5.825 19.4872C5.77584 19.4553 5.74135 19.4054 5.72905 19.3483C5.71675 19.2913 5.72762 19.2317 5.75932 19.1826L10.1674 12.4503L14.5462 1.48858C14.5689 1.43407 14.6122 1.39061 14.6668 1.36754C14.7214 1.34447 14.7829 1.34365 14.8381 1.36525C14.8654 1.37564 14.8904 1.39136 14.9115 1.4115C14.9326 1.43163 14.9495 1.45577 14.961 1.48249C14.9726 1.5092 14.9786 1.53794 14.9788 1.56703C14.979 1.59611 14.9734 1.62494 14.9622 1.65181L10.5833 12.6353L10.5614 12.6752L6.14246 19.422C6.12091 19.454 6.09154 19.4802 6.05709 19.4979C6.02263 19.5157 5.98422 19.5245 5.94542 19.5235Z" fill="#917F59"/>
<path d="M15.0096 32.6978C14.9767 32.698 14.9442 32.6906 14.9147 32.6761C14.8881 32.664 14.8642 32.6467 14.8443 32.6254C14.8243 32.6041 14.8089 32.579 14.7987 32.5517C14.7885 32.5245 14.7839 32.4954 14.785 32.4664C14.7861 32.4373 14.793 32.4087 14.8053 32.3823L20.516 20.1873C20.5412 20.1339 20.5867 20.0926 20.6424 20.0725C20.6982 20.0525 20.7597 20.0553 20.8134 20.0803C20.8671 20.1053 20.9086 20.1505 20.9288 20.2059C20.949 20.2614 20.9462 20.3225 20.9211 20.3759L15.2103 32.5673C15.1933 32.6061 15.1652 32.6391 15.1296 32.6623C15.0939 32.6855 15.0522 32.6979 15.0096 32.6978Z" fill="#917F59"/>
<path d="M19.2461 23.6478C19.2045 23.6476 19.1637 23.636 19.1283 23.6142C19.0929 23.5924 19.0642 23.5614 19.0454 23.5245L17.8558 21.1595C17.8421 21.1336 17.8338 21.1053 17.8314 21.0761C17.8289 21.047 17.8324 21.0177 17.8416 20.99C17.8508 20.9622 17.8655 20.9366 17.8849 20.9146C17.9043 20.8926 17.9279 20.8747 17.9544 20.862C17.9805 20.8489 18.0089 20.841 18.0381 20.8388C18.0673 20.8367 18.0966 20.8402 18.1244 20.8493C18.1522 20.8584 18.1779 20.8729 18.2001 20.8919C18.2222 20.9108 18.2404 20.934 18.2536 20.96L19.4468 23.325C19.4722 23.378 19.4758 23.4388 19.4567 23.4944C19.4376 23.5499 19.3974 23.5959 19.3447 23.6224C19.3146 23.6393 19.2806 23.648 19.2461 23.6478Z" fill="#917F59"/>
<path d="M15.0096 37C14.9671 37.0003 14.925 36.9906 14.887 36.9717C14.849 36.9528 14.8159 36.9252 14.7906 36.8912L1.05567 18.1054C1.01956 18.0585 1 18.0012 1 17.9421C1 17.8831 1.01956 17.8258 1.05567 17.7789L14.7943 1.09334C14.8203 1.06401 14.8523 1.04051 14.8882 1.02442C14.9241 1.00833 14.9629 1 15.0023 1C15.0416 1 15.0805 1.00833 15.1164 1.02442C15.1523 1.04051 15.1843 1.06401 15.2103 1.09334L28.9453 17.7789C28.9808 17.826 29 17.8833 29 17.9421C29 18.001 28.9808 18.0583 28.9453 18.1054L15.2066 36.9021C15.1827 36.9314 15.1528 36.9553 15.1188 36.9722C15.0848 36.9891 15.0476 36.9986 15.0096 37ZM15.0096 37C14.9386 37 14.8705 36.9721 14.8199 36.9226C14.7694 36.873 14.7405 36.8057 14.7396 36.7351V1.25286C14.7473 1.18751 14.7788 1.12724 14.8283 1.0835C14.8777 1.03976 14.9416 1.01559 15.0078 1.01559C15.074 1.01559 15.1379 1.03976 15.1873 1.0835C15.2367 1.12724 15.2683 1.18751 15.276 1.25286V36.7351C15.276 36.8053 15.2479 36.8727 15.198 36.9224C15.148 36.972 15.0802 37 15.0096 37ZM1.61032 17.9458L15.0096 36.2818L28.4089 17.9458L15.0096 1.67371L1.61032 17.9458ZM1.32573 17.7643L15.0899 21.6926H14.9366L28.6826 17.7026C28.713 17.6938 28.7449 17.691 28.7764 17.6945C28.8079 17.6979 28.8384 17.7074 28.8662 17.7226C28.894 17.7378 28.9185 17.7582 28.9383 17.7828C28.9582 17.8074 28.9729 17.8356 28.9818 17.8658C28.9907 17.8961 28.9934 17.9278 28.99 17.9591C28.9865 17.9904 28.9769 18.0207 28.9617 18.0484C28.9464 18.076 28.9258 18.1003 28.9011 18.1201C28.8764 18.1398 28.848 18.1545 28.8176 18.1633L15.0863 22.2041C15.0362 22.2186 14.983 22.2186 14.933 22.2041L1.21991 18.1052C1.17413 18.091 1.13582 18.0594 1.11329 18.0173C1.09075 17.9752 1.08579 17.926 1.09949 17.8803C1.10654 17.8579 1.11801 17.837 1.13324 17.819C1.14846 17.8009 1.16714 17.7861 1.18819 17.7753C1.20924 17.7645 1.23224 17.7579 1.25585 17.756C1.27946 17.7542 1.30322 17.7569 1.32573 17.7643ZM11.1781 21.0541C11.1227 21.0544 11.0691 21.0341 11.028 20.9972C10.9868 20.9603 10.961 20.9094 10.9555 20.8546L10.1345 12.5735C10.1294 12.5153 10.1476 12.4575 10.1852 12.4127C10.2228 12.3679 10.2767 12.3396 10.3352 12.3341C10.3935 12.3289 10.4516 12.3465 10.4972 12.383C10.5428 12.4195 10.5723 12.4722 10.5797 12.53L11.4007 20.8111C11.4058 20.8696 11.3877 20.9278 11.3502 20.9733C11.3127 21.0187 11.2588 21.0477 11.2 21.0541H11.1781ZM5.94542 19.5235C5.90251 19.5238 5.86051 19.5112 5.825 19.4872C5.77584 19.4553 5.74135 19.4054 5.72905 19.3483C5.71675 19.2913 5.72762 19.2317 5.75932 19.1826L10.1674 12.4503L14.5462 1.48858C14.5689 1.43407 14.6122 1.39061 14.6668 1.36754C14.7214 1.34447 14.7829 1.34365 14.8381 1.36525C14.8654 1.37564 14.8904 1.39136 14.9115 1.4115C14.9326 1.43163 14.9495 1.45577 14.961 1.48249C14.9726 1.5092 14.9786 1.53794 14.9788 1.56703C14.979 1.59611 14.9734 1.62494 14.9622 1.65181L10.5833 12.6353L10.5614 12.6752L6.14246 19.422C6.12091 19.454 6.09154 19.4802 6.05709 19.4979C6.02263 19.5157 5.98422 19.5245 5.94542 19.5235ZM15.0096 32.6978C14.9767 32.698 14.9442 32.6906 14.9147 32.6761C14.8881 32.664 14.8642 32.6467 14.8443 32.6254C14.8243 32.6041 14.8089 32.579 14.7987 32.5517C14.7885 32.5245 14.7839 32.4954 14.785 32.4664C14.7861 32.4373 14.793 32.4087 14.8053 32.3823L20.516 20.1873C20.5412 20.1339 20.5867 20.0926 20.6424 20.0725C20.6982 20.0525 20.7597 20.0553 20.8134 20.0803C20.8671 20.1053 20.9086 20.1505 20.9288 20.2059C20.949 20.2614 20.9462 20.3225 20.9211 20.3759L15.2103 32.5673C15.1933 32.6061 15.1652 32.6391 15.1296 32.6623C15.0939 32.6855 15.0522 32.6979 15.0096 32.6978ZM19.2461 23.6478C19.2045 23.6476 19.1637 23.636 19.1283 23.6142C19.0929 23.5924 19.0642 23.5614 19.0454 23.5245L17.8558 21.1595C17.8421 21.1336 17.8338 21.1053 17.8314 21.0761C17.8289 21.047 17.8324 21.0177 17.8416 20.99C17.8508 20.9622 17.8655 20.9366 17.8849 20.9146C17.9043 20.8926 17.9279 20.8747 17.9544 20.862C17.9805 20.8489 18.0089 20.841 18.0381 20.8388C18.0673 20.8367 18.0966 20.8402 18.1244 20.8493C18.1522 20.8584 18.1779 20.8729 18.2001 20.8919C18.2222 20.9108 18.2404 20.934 18.2536 20.96L19.4468 23.325C19.4722 23.378 19.4758 23.4388 19.4567 23.4944C19.4376 23.5499 19.3974 23.5959 19.3447 23.6224C19.3146 23.6393 19.2806 23.648 19.2461 23.6478Z" stroke="#917F59"/>
</svg>
