<svg width="35" height="35" viewBox="0 0 35 35" fill="none" xmlns="http://www.w3.org/2000/svg">
<path d="M12.9153 35C12.6598 34.9965 12.4123 34.9102 12.21 34.7543L1.97505 26.6943C1.73979 26.5084 1.5867 26.238 1.54858 25.9408L0.00676128 13.0154C-0.00957895 12.8668 0.0037731 12.7165 0.046005 12.5731C0.0882368 12.4296 0.1585 12.2961 0.252785 12.18L8.3063 1.95759C8.49963 1.73117 8.76691 1.58034 9.06084 1.53169L22.0022 0.00817922C22.3003 -0.0275647 22.6006 0.054741 22.8387 0.237501L33.0245 8.29744C33.1452 8.38549 33.2457 8.49824 33.3193 8.6282C33.3928 8.75816 33.4377 8.90231 33.451 9.051L34.9928 21.9763C35.026 22.2688 34.9436 22.5627 34.7632 22.7954L26.6933 33.0178C26.6037 33.1369 26.4904 33.2362 26.3606 33.3095C26.2307 33.3828 26.0871 33.4284 25.9387 33.4437L12.9974 34.9836L12.9153 35ZM3.74648 25.1708L13.2434 32.6574L25.2499 31.2322L32.7293 21.7306L31.3843 9.77181L21.871 2.30164L9.86454 3.72686L2.38511 13.212L3.74648 25.1708Z" fill="#917F59"/>
<path d="M15.7694 24.4832C15.5968 24.4846 15.4288 24.4268 15.2937 24.3194L11.4064 21.2559C11.2485 21.1289 11.1434 20.948 11.1112 20.7481L10.5371 15.8335C10.522 15.7355 10.5274 15.6355 10.5528 15.5397C10.5782 15.4438 10.6231 15.3543 10.6847 15.2765L13.7683 11.3776C13.8244 11.2975 13.8976 11.2309 13.9828 11.1827C14.0679 11.1345 14.1628 11.106 14.2604 11.0992L19.1811 10.5094C19.3792 10.4828 19.5797 10.5359 19.7387 10.6569L23.6425 13.7366C23.7197 13.7956 23.7842 13.8695 23.8321 13.954C23.88 14.0384 23.9104 14.1317 23.9213 14.2281L24.5118 19.1427C24.532 19.3426 24.4731 19.5425 24.3478 19.6997L21.2805 23.5986C21.2197 23.6776 21.1431 23.7431 21.0555 23.7911C20.968 23.839 20.8715 23.8683 20.7721 23.8771L15.8514 24.4668L15.7694 24.4832ZM12.489 20.2567L15.9006 22.9433L20.2144 22.4354L22.9044 19.028L22.3959 14.7196L19.0662 12.0657L14.7524 12.5899L12.0625 15.9974L12.489 20.2567Z" fill="#917F59"/>
<path d="M21.411 0.945547L18.5509 11.0674L20.0031 11.4768L22.8632 1.35489L21.411 0.945547Z" fill="#917F59"/>
<path d="M32.0028 8.52974L22.817 13.6719L23.5548 14.9866L32.7406 9.84443L32.0028 8.52974Z" fill="#917F59"/>
<path d="M9.87026 2.21772L8.55312 2.95323L13.692 12.1331L15.0092 11.3975L9.87026 2.21772Z" fill="#917F59"/>
<path d="M1.33121 12.083L0.918823 13.5327L11.0482 16.4069L11.4606 14.9572L1.33121 12.083Z" fill="#917F59"/>
<path d="M11.4738 19.9764L2.27013 25.0865L3.00333 26.4038L12.207 21.2937L11.4738 19.9764Z" fill="#917F59"/>
<path d="M14.964 23.4818L12.065 33.5926L13.5158 34.0075L16.4148 23.8967L14.964 23.4818Z" fill="#917F59"/>
<path d="M21.3306 22.7816L20.0099 23.5107L25.1038 32.7154L26.4245 31.9863L21.3306 22.7816Z" fill="#917F59"/>
<path d="M23.9134 18.5066L23.494 19.9543L33.6092 22.8779L34.0287 21.4302L23.9134 18.5066Z" fill="#917F59"/>
</svg>
