<svg width="28" height="28" viewBox="0 0 28 28" fill="none" xmlns="http://www.w3.org/2000/svg">
<circle cx="14" cy="14" r="14" fill="#917F59"/>
<path d="M22.985 11.8491C22.9743 11.7995 22.9586 11.7511 22.9381 11.7047L21.1672 7.57219C20.7589 6.61734 19.7656 6 18.6355 6H9.36454C8.23532 6 7.2411 6.61734 6.83329 7.57219L5.06047 11.7047C5.02018 11.7979 4.9996 11.8984 5.00001 12V20.25C5.00001 20.4489 5.07902 20.6397 5.21968 20.7803C5.36033 20.921 5.55109 21 5.75001 21H7.25001C7.44892 21 7.63968 20.921 7.78034 20.7803C7.92099 20.6397 8.00001 20.4489 8.00001 20.25V19.5H20V20.25C20 20.4489 20.079 20.6397 20.2197 20.7803C20.3603 20.921 20.5511 21 20.75 21H22.25C22.4489 21 22.6397 20.921 22.7803 20.7803C22.921 20.6397 23 20.4489 23 20.25V12C23.0001 11.9493 22.995 11.8987 22.985 11.8491ZM8.75001 16.5C8.45333 16.5 8.16332 16.412 7.91665 16.2472C7.66998 16.0824 7.47772 15.8481 7.36419 15.574C7.25065 15.2999 7.22095 14.9983 7.27883 14.7074C7.33671 14.4164 7.47957 14.1491 7.68935 13.9393C7.89912 13.7296 8.1664 13.5867 8.45737 13.5288C8.74834 13.4709 9.04994 13.5006 9.32403 13.6142C9.59812 13.7277 9.83239 13.92 9.99721 14.1666C10.162 14.4133 10.25 14.7033 10.25 15C10.25 15.3978 10.092 15.7794 9.81067 16.0607C9.52936 16.342 9.14783 16.5 8.75001 16.5ZM19.25 16.5C18.9533 16.5 18.6633 16.412 18.4166 16.2472C18.17 16.0824 17.9777 15.8481 17.8642 15.574C17.7507 15.2999 17.721 14.9983 17.7788 14.7074C17.8367 14.4164 17.9796 14.1491 18.1893 13.9393C18.3991 13.7296 18.6664 13.5867 18.9574 13.5288C19.2483 13.4709 19.5499 13.5006 19.824 13.6142C20.0981 13.7277 20.3324 13.92 20.4972 14.1666C20.662 14.4133 20.75 14.7033 20.75 15C20.75 15.3978 20.592 15.7794 20.3107 16.0607C20.0294 16.342 19.6478 16.5 19.25 16.5ZM6.88719 11.25L8.21047 8.16328C8.38016 7.76672 8.84376 7.5 9.36454 7.5H18.6355C19.1558 7.5 19.6199 7.76672 19.7895 8.16328L21.1128 11.25H6.88719Z" fill="white"/>
</svg>
