<svg width="28" height="28" viewBox="0 0 28 28" fill="none" xmlns="http://www.w3.org/2000/svg">
<circle cx="14" cy="14" r="14" fill="#917F59"/>
<path d="M10.6 6.8C10.1226 6.8 9.66477 6.98964 9.32721 7.32721C8.98964 7.66477 8.8 8.12261 8.8 8.6V13.1L19.6 13.0667V8.6C19.6 8.12261 19.4104 7.66477 19.0728 7.32721C18.7352 6.98964 18.2774 6.8 17.8 6.8H10.6ZM16.9 20.3H11.5V22.1C11.5 22.3387 11.4052 22.5676 11.2364 22.7364C11.0676 22.9052 10.8387 23 10.6 23H9.7C9.46131 23 9.23239 22.9052 9.0636 22.7364C8.89482 22.5676 8.8 22.3387 8.8 22.1V19.8185C8.25249 19.5026 7.79786 19.0481 7.48187 18.5006C7.16587 17.9531 6.99968 17.3321 7 16.7V8.6C7 7.64522 7.37929 6.72955 8.05442 6.05442C8.72955 5.37928 9.64522 5 10.6 5H17.8C18.7548 5 19.6705 5.37928 20.3456 6.05442C21.0207 6.72955 21.4 7.64522 21.4 8.6V16.7C21.4 18.032 20.6764 19.1957 19.6 19.8185V22.1C19.6 22.3387 19.5052 22.5676 19.3364 22.7364C19.1676 22.9052 18.9387 23 18.7 23H17.8C17.5613 23 17.3324 22.9052 17.1636 22.7364C16.9948 22.5676 16.9 22.3387 16.9 22.1V20.3ZM10.6 17.6C10.8387 17.6 11.0676 17.5052 11.2364 17.3364C11.4052 17.1676 11.5 16.9387 11.5 16.7C11.5 16.4613 11.4052 16.2324 11.2364 16.0636C11.0676 15.8948 10.8387 15.8 10.6 15.8C10.3613 15.8 10.1324 15.8948 9.9636 16.0636C9.79482 16.2324 9.7 16.4613 9.7 16.7C9.7 16.9387 9.79482 17.1676 9.9636 17.3364C10.1324 17.5052 10.3613 17.6 10.6 17.6ZM17.8 17.6C18.0387 17.6 18.2676 17.5052 18.4364 17.3364C18.6052 17.1676 18.7 16.9387 18.7 16.7C18.7 16.4613 18.6052 16.2324 18.4364 16.0636C18.2676 15.8948 18.0387 15.8 17.8 15.8C17.5613 15.8 17.3324 15.8948 17.1636 16.0636C16.9948 16.2324 16.9 16.4613 16.9 16.7C16.9 16.9387 16.9948 17.1676 17.1636 17.3364C17.3324 17.5052 17.5613 17.6 17.8 17.6ZM10.6 7.7C10.8387 7.7 11.0676 7.79482 11.2364 7.9636C11.4052 8.13239 11.5 8.3613 11.5 8.6V11.3C11.5 11.5387 11.4052 11.7676 11.2364 11.9364C11.0676 12.1052 10.8387 12.2 10.6 12.2C10.3613 12.2 10.1324 12.1052 9.9636 11.9364C9.79482 11.7676 9.7 11.5387 9.7 11.3V8.6C9.7 8.3613 9.79482 8.13239 9.9636 7.9636C10.1324 7.79482 10.3613 7.7 10.6 7.7Z" fill="white"/>
</svg>
