<svg width="35" height="35" viewBox="0 0 35 35" fill="none" xmlns="http://www.w3.org/2000/svg">
<path d="M9.83691 5.83337H25.2484C25.2484 5.83337 23.9642 25.1666 17.5427 25.1666C14.4058 25.1666 12.4948 20.5531 11.3605 15.8333C10.1729 10.8915 9.83691 5.83337 9.83691 5.83337Z" stroke="#917F59" stroke-width="1.5" stroke-linecap="round" stroke-linejoin="round"/>
<path d="M25.2484 5.83332C25.2484 5.83332 26.5918 4.40026 27.7083 4.37497C29.8958 4.32545 30.3002 5.83332 30.3002 5.83332C30.7284 6.72222 31.0708 9.03333 29.016 11.1667C26.9611 13.3 24.6608 15.1667 23.7247 15.8333" stroke="#917F59" stroke-width="1.5" stroke-linecap="round" stroke-linejoin="round"/>
<path d="M9.8368 5.83336C9.8368 5.83336 8.43709 4.38396 7.29154 4.37503C5.10404 4.35795 4.69963 5.83336 4.69963 5.83336C4.27152 6.72224 3.92905 9.03335 5.98393 11.1667C8.03879 13.3 10.4245 15.1667 11.3604 15.8334" stroke="#917F59" stroke-width="1.5" stroke-linecap="round" stroke-linejoin="round"/>
<path d="M12.4055 29.1667C12.4055 26.5 17.5426 25.1666 17.5426 25.1666C17.5426 25.1666 22.6799 26.5 22.6799 29.1667H12.4055Z" stroke="#917F59" stroke-width="1.5" stroke-linecap="round" stroke-linejoin="round"/>
</svg>
