<svg width="23" height="22" viewBox="0 0 23 22" fill="none" xmlns="http://www.w3.org/2000/svg">
<path d="M0.428711 21.3571V8.5H2.11621L6.77693 18.1696L11.4109 8.5H13.1162V21.3482H11.3484V12.5536L7.19657 21.3571H6.34835L2.18764 12.5536V21.3571H0.428711Z" fill="white"/>
<path d="M15.6069 10.6357L15.6141 9.30711L20.0926 5.29282C20.4546 4.97377 20.6998 4.66901 20.8284 4.37854C20.9617 4.08806 21.0284 3.79758 21.0284 3.50711C21.0284 3.14044 20.9474 2.81187 20.7855 2.52139C20.6236 2.22616 20.3998 1.99282 20.1141 1.82139C19.8284 1.64997 19.4998 1.56425 19.1284 1.56425C18.7474 1.56425 18.4069 1.65473 18.1069 1.83568C17.8117 2.01187 17.5807 2.24758 17.4141 2.54282C17.2474 2.83806 17.1665 3.15711 17.1712 3.49997H15.6426C15.6426 2.8333 15.7926 2.24996 16.0926 1.74997C16.3974 1.2452 16.8141 0.852346 17.3426 0.571393C17.8712 0.285679 18.476 0.142822 19.1569 0.142822C19.8046 0.142822 20.3855 0.290441 20.8998 0.585679C21.4141 0.876155 21.8188 1.27616 22.1141 1.78568C22.4141 2.2952 22.5641 2.87616 22.5641 3.52854C22.5641 3.99996 22.5022 4.39997 22.3784 4.72854C22.2546 5.05711 22.0688 5.36187 21.8212 5.64282C21.5736 5.92378 21.2641 6.22854 20.8926 6.55711L17.4355 9.64282L17.2712 9.21425H22.5641V10.6357H15.6069Z" fill="white"/>
</svg>
