<svg width="39" height="39" viewBox="0 0 39 39" fill="none" xmlns="http://www.w3.org/2000/svg">
<path d="M15.7031 27.625H23.2967M19.4999 4.875V6.5M29.8413 9.15856L28.6923 10.3076M34.125 19.4999H32.5M6.5 19.4999H4.875M10.3075 10.3076L9.15848 9.15856M13.7547 25.2453C10.5817 22.0723 10.5817 16.9278 13.7547 13.7548C16.9277 10.5818 22.0721 10.5818 25.2452 13.7548C28.4182 16.9278 28.4182 22.0723 25.2452 25.2453L24.3561 26.1343C23.3277 27.1628 22.7499 28.5576 22.7499 30.012V30.875C22.7499 32.6699 21.2948 34.125 19.4999 34.125C17.705 34.125 16.2499 32.6699 16.2499 30.875V30.012C16.2499 28.5576 15.6721 27.1628 14.6437 26.1343L13.7547 25.2453Z" stroke="#917F59" stroke-width="2" stroke-linecap="round" stroke-linejoin="round"/>
</svg>
