<svg width="19" height="16" viewBox="0 0 19 16" fill="none" xmlns="http://www.w3.org/2000/svg">
<path fill-rule="evenodd" clip-rule="evenodd" d="M0.192702 4.3533C-0.0874415 6.95619 -0.074954 9.95818 0.314869 12.5505C0.530567 13.9849 1.70124 15.0845 3.14631 15.2102L4.65654 15.3414C7.80558 15.6152 10.9724 15.6152 14.1215 15.3414L15.6317 15.2102C17.0768 15.0845 18.2475 13.9849 18.4632 12.5505C18.853 9.95817 18.8655 6.95636 18.5853 4.35345C18.5491 4.05169 18.5084 3.75034 18.4632 3.44949C18.2475 2.0151 17.0768 0.915451 15.6317 0.789834L14.1215 0.658552C10.9724 0.384812 7.80558 0.384812 4.65654 0.658553L3.14631 0.789834C1.70124 0.915451 0.530567 2.0151 0.314869 3.44949C0.269637 3.75028 0.228914 4.05159 0.192702 4.3533ZM4.78644 2.15292C7.84905 1.88669 10.929 1.88669 13.9916 2.15292L15.5018 2.2842C16.2562 2.34977 16.8672 2.92379 16.9798 3.67254C16.9915 3.7503 17.0029 3.82809 17.014 3.90592L11.453 6.99537C10.1694 7.70848 8.60859 7.70848 7.325 6.99537L1.76406 3.90596C1.77512 3.82812 1.7865 3.75031 1.79819 3.67254C1.91079 2.92379 2.52188 2.34977 3.27621 2.2842L4.78644 2.15292ZM17.1975 5.51989C17.3915 7.78764 17.3189 10.0725 16.9798 12.3274C16.8672 13.0762 16.2562 13.6502 15.5018 13.7158L13.9916 13.8471C10.929 14.1133 7.84905 14.1133 4.78644 13.8471L3.27621 13.7158C2.52188 13.6502 1.91079 13.0762 1.79819 12.3274C1.4591 10.0725 1.38654 7.78766 1.58051 5.51992L6.59653 8.3066C8.33316 9.2714 10.4448 9.2714 12.1814 8.3066L17.1975 5.51989Z" fill="#917F59"/>
</svg>
