<svg width="35" height="35" viewBox="0 0 35 35" fill="none" xmlns="http://www.w3.org/2000/svg">
<path fill-rule="evenodd" clip-rule="evenodd" d="M3.28125 17.5C3.28125 9.64984 9.64984 3.28125 17.5 3.28125C25.3502 3.28125 31.7188 9.64984 31.7188 17.5C31.7188 25.3502 25.3502 31.7188 17.5 31.7188C9.64984 31.7188 3.28125 25.3502 3.28125 17.5ZM17.5 5.46875C10.858 5.46875 5.46875 10.858 5.46875 17.5C5.46875 24.142 10.858 29.5312 17.5 29.5312C24.142 29.5312 29.5312 24.142 29.5312 17.5C29.5312 10.858 24.142 5.46875 17.5 5.46875Z" fill="#917F59"/>
<path fill-rule="evenodd" clip-rule="evenodd" d="M24.766 11.1938C25.2285 11.5823 25.2885 12.2722 24.9 12.7348L15.7125 23.6723C15.5089 23.9147 15.2102 24.057 14.8937 24.0624C14.5772 24.0678 14.2738 23.9358 14.062 23.7005L10.1245 19.3255C9.72044 18.8765 9.75683 18.1849 10.2058 17.7808C10.6548 17.3767 11.3464 17.4131 11.7505 17.8621L14.8465 21.3022L23.225 11.3278C23.6135 10.8653 24.3035 10.8053 24.766 11.1938Z" fill="#917F59"/>
</svg>
