<svg width="485" height="32" viewBox="0 0 485 32" fill="none" xmlns="http://www.w3.org/2000/svg">
<path fill-rule="evenodd" clip-rule="evenodd" d="M217.898 14.4371V18.7534L0 16.8185L217.898 14.4371Z" fill="#847554"/>
<path fill-rule="evenodd" clip-rule="evenodd" d="M266.419 14.4371V18.7534L484.316 16.8185L266.419 14.4371Z" fill="#847554"/>
<path fill-rule="evenodd" clip-rule="evenodd" d="M240.967 4.16748L245.879 12.0558L253.619 16.6698L245.581 21.7303L240.967 29.321L236.056 21.4327L228.316 16.6698L236.353 11.7582L240.967 4.16748Z" fill="#847554"/>
<path fill-rule="evenodd" clip-rule="evenodd" d="M257.191 0L259.275 3.27444L262.4 5.2093L259.126 7.14417L257.191 10.2698L255.107 6.99537L251.981 5.2093L255.256 3.12555L257.191 0Z" fill="#847554"/>
<path fill-rule="evenodd" clip-rule="evenodd" d="M227.126 25.3024L228.316 27.3861L230.4 28.5768L228.316 29.9163L227.126 32L225.786 29.7675L223.702 28.5768L225.786 27.2372L227.126 25.3024Z" fill="#847554"/>
</svg>
