<svg width="28" height="28" viewBox="0 0 28 28" fill="none" xmlns="http://www.w3.org/2000/svg">
<circle cx="14" cy="14" r="14" fill="#917F59"/>
<path d="M7.07887 12.4384C8.87107 16.3441 12.0601 19.4493 16.0249 21.1328L16.6604 21.4161C18.1145 22.0643 19.8238 21.5718 20.7106 20.2492L21.5412 19.0105C21.8112 18.6078 21.729 18.0654 21.3518 17.7609L18.5351 15.4872C18.1214 15.1533 17.513 15.231 17.1966 15.6584L16.3252 16.8348C14.0893 15.7313 12.2741 13.915 11.1712 11.6778L12.3469 10.8059C12.774 10.4892 12.8518 9.88053 12.518 9.46658L10.2456 6.64817C9.94134 6.27081 9.39939 6.18849 8.99692 6.45852L7.75045 7.29479C6.42029 8.18721 5.93083 9.91164 6.59363 11.3704L7.07814 12.4368L7.07887 12.4384Z" fill="white"/>
</svg>
