<svg width="28" height="28" viewBox="0 0 28 28" fill="none" xmlns="http://www.w3.org/2000/svg">
<circle cx="14" cy="14" r="14" fill="#917F59"/>
<path fill-rule="evenodd" clip-rule="evenodd" d="M6 13.5C6 8.80558 9.80558 5 14.5 5C19.1944 5 23 8.80558 23 13.5C23 18.1944 19.1944 22 14.5 22C9.80558 22 6 18.1944 6 13.5ZM15.25 8.5C15.25 8.08579 14.9142 7.75 14.5 7.75C14.0858 7.75 13.75 8.08579 13.75 8.5V13.5C13.75 13.7586 13.8832 13.9989 14.1025 14.136L17.1025 16.011C17.4538 16.2305 17.9165 16.1238 18.136 15.7725C18.3555 15.4212 18.2488 14.9585 17.8975 14.739L15.25 13.0843V8.5Z" fill="white"/>
</svg>
