<svg width="28" height="28" viewBox="0 0 28 28" fill="none" xmlns="http://www.w3.org/2000/svg">
<circle cx="14" cy="14" r="14" fill="#917F59"/>
<path d="M10.6447 8.16725C13.2101 7.94425 15.7899 7.94425 18.3553 8.16725L19.5912 8.27469C20.414 8.34621 21.1187 8.83697 21.4838 9.53897C21.5305 9.62877 21.4955 9.73751 21.4094 9.79079L16.2815 12.9652C15.1817 13.6461 13.7949 13.6604 12.6813 13.0023L7.51907 9.95192C7.43567 9.90263 7.39738 9.80119 7.43497 9.7119C7.769 8.91842 8.51998 8.35195 9.40877 8.27469L10.6447 8.16725Z" fill="white"/>
<path d="M7.43077 11.3256C7.30313 11.2502 7.14027 11.3314 7.12539 11.4789C6.91774 13.5376 6.968 15.6159 7.27617 17.6652C7.43863 18.7456 8.32036 19.5738 9.40877 19.6684L10.6447 19.7759C13.2101 19.9989 15.7899 19.9989 18.3553 19.7759L19.5912 19.6684C20.6796 19.5738 21.5614 18.7456 21.7238 17.6652C22.041 15.5562 22.085 13.4165 21.8558 11.2989C21.8397 11.1504 21.6741 11.0707 21.547 11.1494L16.9276 14.009C15.4396 14.9301 13.5634 14.9495 12.0568 14.0592L7.43077 11.3256Z" fill="white"/>
</svg>
