<svg width="16" height="10" viewBox="0 0 16 10" fill="none" xmlns="http://www.w3.org/2000/svg">
<path d="M15.3566 9.70307H13.6051C12.9424 9.70307 12.7431 9.16645 11.5547 7.97797C10.5174 6.97797 10.0793 6.85312 9.81635 6.85312C9.45381 6.85312 9.35417 6.95276 9.35417 7.45336V9.02839C9.35417 9.45457 9.21611 9.70427 8.10326 9.70427C7.02324 9.63169 5.97591 9.30356 5.04755 8.74692C4.11919 8.19027 3.33635 7.42104 2.76351 6.50258C1.40357 4.80989 0.457314 2.82326 0 0.700641C0 0.437735 0.0996401 0.20004 0.600242 0.20004H2.35055C2.80073 0.20004 2.96279 0.40052 3.13926 0.862706C3.98921 3.36451 5.43939 5.53979 6.02763 5.53979C6.25332 5.53979 6.35176 5.44015 6.35176 4.87712V2.30089C6.27733 1.12561 5.65308 1.02597 5.65308 0.601001C5.6611 0.48891 5.71246 0.384352 5.79628 0.309498C5.8801 0.234645 5.98978 0.195383 6.10206 0.20004H8.85356C9.22932 0.20004 9.35417 0.387315 9.35417 0.837496V4.3141C9.35417 4.68985 9.51623 4.8147 9.62908 4.8147C9.85477 4.8147 10.0288 4.68985 10.4418 4.27688C11.3288 3.19518 12.0535 1.99005 12.5931 0.699441C12.6482 0.544415 12.7526 0.411689 12.8902 0.321519C13.0279 0.231349 13.1912 0.188686 13.3554 0.20004H15.1069C15.6315 0.20004 15.7431 0.462945 15.6315 0.837496C14.9946 2.26419 14.2066 3.61847 13.2809 4.87712C13.0925 5.16524 13.0168 5.3153 13.2809 5.65263C13.455 5.91554 14.0685 6.42815 14.4814 6.91554C15.0816 7.51415 15.5799 8.20674 15.9568 8.96597C16.1069 9.45337 15.856 9.70307 15.3566 9.70307Z" fill="white"/>
</svg>
