<svg width="46" height="46" viewBox="0 0 46 46" fill="none" xmlns="http://www.w3.org/2000/svg">
<circle cx="23" cy="23.1001" r="22.5" fill="#917F59"/>
<path d="M21.6587 8.6001C20.8616 8.60011 20.115 8.98498 19.6595 9.63062L12.2949 20.0698C10.9119 22.0301 10.2956 24.4187 10.5599 26.7932L11.1262 31.8803C11.3682 34.0541 13.0971 35.776 15.2972 36.0344L18.9814 36.467C21.7948 36.7973 24.6475 36.511 27.3359 35.6283C29.2177 35.0105 30.725 33.6006 31.4512 31.7791L34.4246 24.3203C34.5684 23.9595 34.6678 23.583 34.7207 23.1988C35.1806 19.854 32.1187 17.0829 28.7827 17.8249L21.9993 19.3337L24.0178 11.6051C24.4153 10.0831 23.251 8.60007 21.6587 8.6001Z" fill="white"/>
</svg>
