<svg width="375" height="223" viewBox="0 0 375 223" fill="none" xmlns="http://www.w3.org/2000/svg">
<g opacity="0.4">
<path d="M77.7981 194.291C71.3254 196.025 65.0387 197.55 58.9709 198.855C25.6581 206.021 0.00816219 206.466 -17.2667 200.178C-34.9403 193.747 -43.3434 180.329 -42.2454 160.294C-38.9091 99.475 -30.2204 60.0055 -24.4711 33.8901C-21.8834 22.1354 -19.8392 12.8497 -19.2567 5.82629C-18.2891 -5.8623 -5.63633 -24.4256 13.7612 -42.622C34.6367 -62.2025 58.6165 -77.0982 79.5551 -83.4883C108.433 -92.3015 137.852 -109.172 157.446 -121.773C180.271 -136.452 203.272 -154.098 218.972 -168.978C229.106 -178.584 241.19 -182.056 253.914 -179.02C275.945 -173.762 297.044 -149.712 308.976 -116.26C314.631 -100.404 320.479 -84.0067 325.118 -67.9153C330.249 -50.1236 333.298 -34.628 334.445 -20.5445C335.812 -3.72817 334.576 11.5727 330.667 26.2288C326.302 42.5922 318.725 57.8015 307.502 72.7267C288.336 98.2172 226.827 136.582 157.925 166.023C129.738 178.066 102.417 187.692 77.7974 194.289L77.7981 194.291ZM236.272 -178.181C230.287 -176.577 224.632 -173.312 219.486 -168.434C203.753 -153.522 180.712 -135.845 157.852 -121.143C138.218 -108.519 108.734 -91.6103 79.7728 -82.7721C58.9416 -76.4134 35.0658 -61.5815 14.271 -42.0742C-4.99696 -24 -17.5598 -5.62028 -18.5129 5.89201C-19.0994 12.968 -21.1486 22.273 -23.7419 34.055C-29.4868 60.1485 -38.1653 99.5793 -41.4996 160.339C-42.5777 180.005 -34.3392 193.174 -17.0104 199.481C0.129669 205.719 25.6407 205.264 58.8152 198.13C87.9089 191.873 122.079 180.535 157.632 165.343C226.428 135.948 287.812 97.6811 306.907 72.284C318.07 57.4364 325.606 42.3129 329.948 26.0409C333.835 11.4678 335.065 -3.74921 333.703 -20.4794C331.151 -51.8681 319.52 -84.4727 308.275 -116.005C296.428 -149.223 275.532 -173.09 253.741 -178.289C247.725 -179.726 241.854 -179.674 236.273 -178.179L236.272 -178.181Z" fill="#917F59"/>
<path d="M78.5602 181.094C73.4402 182.466 68.4535 183.691 63.6163 184.763C33.1101 191.525 9.62771 192.102 -6.18384 186.479C-22.1666 180.794 -29.8391 168.824 -28.989 150.902C-26.8196 96.7507 -19.4561 59.2264 -14.5849 34.3987C-12.2978 22.7425 -10.4925 13.5363 -9.94148 6.43383C-9.047 -5.04732 2.54706 -22.7661 20.3166 -39.8109C39.3439 -58.0625 61.6006 -72.1234 81.3798 -78.3907C107.982 -86.6509 135.125 -102.016 153.208 -113.448C174.454 -126.881 195.163 -142.382 210.027 -155.983C219.408 -164.564 230.547 -167.566 242.243 -164.666C262.544 -159.634 281.947 -137.505 292.877 -106.91C303.217 -78.0556 313.911 -48.218 316.264 -18.8113C317.504 -3.32222 316.36 10.7834 312.767 24.3103C308.76 39.3991 301.817 53.4297 291.55 67.2034C274 90.9078 217.557 126.636 154.295 154.09C127.602 165.673 101.737 174.886 78.5584 181.097L78.5602 181.094ZM225.497 -163.962C220.166 -162.533 215.119 -159.688 210.502 -155.467C195.61 -141.84 174.865 -126.309 153.586 -112.857C135.464 -101.402 108.266 -86.0064 81.5925 -77.7221C61.9129 -71.4867 39.7559 -57.4859 20.8046 -39.3062C3.15387 -22.3755 -8.35736 -4.82815 -9.23951 6.4876C-9.79223 13.6317 -11.6033 22.8549 -13.8925 34.5322C-18.7609 59.3412 -26.1161 96.8298 -28.2832 150.932C-29.1167 168.512 -21.6019 180.249 -5.94385 185.818C9.73964 191.396 33.0934 190.809 63.4685 184.077C90.1612 178.163 121.474 167.568 154.022 153.443C217.182 126.034 273.505 90.3995 290.992 66.7818C301.208 53.0807 308.11 39.128 312.094 24.1276C315.668 10.6782 316.804 -3.34831 315.57 -18.7591C313.223 -48.0749 302.546 -77.8682 292.22 -106.68C281.366 -137.056 262.154 -159.015 242.076 -163.991C236.369 -165.406 230.792 -165.383 225.497 -163.964L225.497 -163.962Z" fill="#917F59"/>
<path d="M79.3661 167.91C75.5748 168.926 71.8694 169.849 68.2523 170.679C40.5534 177.039 19.2355 177.746 4.89204 172.787C-9.39981 167.848 -16.34 157.324 -15.7342 141.507C-14.7147 93.6746 -8.86948 59.4312 -4.60091 34.4305C-2.66343 23.0841 -1.13519 14.1219 -0.626154 7.03585C0.207962 -4.41112 10.4877 -20.8746 26.8721 -37.0054C44.0591 -53.9276 64.5926 -67.1537 83.2053 -73.2963C127.298 -87.2669 177.854 -122.63 201.08 -142.99C209.709 -150.545 219.907 -153.08 230.577 -150.317C249.147 -145.51 266.849 -125.298 276.777 -97.568C285.758 -72.6493 295.935 -44.4048 298.082 -17.0836C299.194 -2.92113 298.144 9.98852 294.868 22.3856C291.218 36.2004 284.914 49.0512 275.599 61.6746C267.601 72.6713 251.097 86.3384 227.874 101.193C205.568 115.463 178.144 130.011 150.662 142.158C125.48 153.287 101.079 162.092 79.3685 167.909L79.3661 167.91ZM214.699 -149.749C210.026 -148.497 205.59 -146.071 201.51 -142.498C178.245 -122.102 127.59 -86.6738 83.4057 -72.6733C64.8878 -66.5613 44.4475 -53.391 27.3294 -36.5387C11.0572 -20.5177 0.849036 -4.20981 0.0250203 7.08264C-0.48591 14.2001 -2.01814 23.1762 -3.95833 34.5413C-8.22179 59.5227 -14.0615 93.7389 -15.0822 141.528C-15.6752 157.027 -8.88345 167.334 5.10501 172.169C19.332 177.088 40.5266 176.372 68.1041 170.04C92.3945 164.463 120.853 154.614 150.393 141.558C177.848 129.424 205.237 114.893 227.517 100.641C250.67 85.8301 267.113 72.2233 275.065 61.2876C284.334 48.7307 290.602 35.9511 294.229 22.2198C297.485 9.89481 298.531 -2.94421 297.424 -17.0308C295.285 -44.2641 285.122 -72.466 276.154 -97.3446C266.298 -124.872 248.77 -144.928 230.407 -149.682C224.997 -151.083 219.711 -151.092 214.696 -149.749L214.699 -149.749Z" fill="#917F59"/>
<path d="M80.2337 154.741C77.7373 155.41 75.2879 156.033 72.8775 156.609C47.9852 162.564 28.8355 163.406 15.9578 159.112C3.35968 154.91 -2.84399 145.827 -2.48252 132.117C-2.61785 90.1615 2.06355 57.5138 5.48268 33.6773C6.95595 23.4047 8.2281 14.5343 8.68541 7.63965C9.44747 -3.60532 18.6959 -19.247 33.4215 -34.1974C48.7789 -49.788 67.5881 -62.1842 85.0263 -68.2024C102.468 -73.8614 123.11 -83.7511 144.728 -96.8046C162.079 -107.282 179.355 -119.38 192.131 -129.998C200.006 -136.533 209.269 -138.598 218.918 -135.966C235.751 -131.375 251.749 -113.081 260.671 -88.2213C270.13 -62.1544 278.105 -38.677 279.895 -15.3511C280.88 -2.51587 279.92 9.20153 276.962 20.4688C273.67 33.0066 268.004 44.6805 259.64 56.1537C252.403 66.3188 237.505 78.9172 216.558 92.5863C196.517 105.662 171.82 119.036 147.015 130.245C123.362 140.931 100.447 149.333 80.2308 154.75L80.2337 154.741ZM203.879 -135.551C199.869 -134.477 196.054 -132.464 192.519 -129.53C179.723 -118.895 162.418 -106.775 145.042 -96.2842C123.385 -83.2071 102.7 -73.2956 85.2193 -67.6263C67.8735 -61.638 49.1497 -49.2982 33.8575 -33.7713C19.2311 -18.922 10.0472 -3.4238 9.29604 7.6793C8.8373 14.5975 7.56293 23.4788 6.08743 33.7623C2.67101 57.58 -2.00722 90.2011 -1.87064 132.123C-2.22487 145.543 3.83793 154.427 16.1527 158.532C28.9231 162.791 47.9604 161.943 72.7391 156.016C94.6321 150.775 120.231 141.672 146.768 129.681C171.546 118.485 196.214 105.128 216.228 92.0674C237.113 78.441 251.952 65.8966 259.148 55.7889C267.469 44.3761 273.102 32.7703 276.376 20.307C279.315 9.10631 280.27 -2.54528 279.291 -15.3101C277.506 -38.5576 269.545 -61.9925 260.102 -88.0199C251.244 -112.697 235.403 -130.845 218.76 -135.383C213.64 -136.78 208.626 -136.826 203.884 -135.555L203.879 -135.551Z" fill="#917F59"/>
<path d="M81.186 141.605C79.9439 141.937 78.716 142.256 77.4975 142.562C55.4125 148.114 38.4279 149.089 27.0152 145.457C16.112 141.987 10.6459 134.341 10.7731 122.726C9.4232 86.0977 13.03 54.6102 15.6638 31.6196C16.708 22.5041 17.6112 14.6306 17.9992 8.2459C18.7014 -2.97274 26.7124 -17.4183 39.9755 -31.3876C53.5178 -45.6506 70.6015 -57.2113 86.8502 -63.1038C119.283 -73.9272 159.521 -98.6314 183.185 -117.004C190.314 -122.526 198.645 -124.12 207.276 -121.614C222.363 -117.232 236.655 -100.859 244.571 -78.8783C252.698 -56.669 260.123 -34.9661 261.713 -13.6246C262.571 -2.11905 261.704 8.40545 259.064 18.5429C256.13 29.8061 251.101 40.2984 243.69 50.6231C237.214 59.9564 223.92 71.4925 205.248 83.9779C187.473 95.8626 165.499 108.065 143.373 118.337C121.274 128.594 99.8689 136.598 81.1867 141.607L81.186 141.605ZM193.035 -121.367C189.7 -120.473 186.51 -118.867 183.532 -116.561C159.832 -98.1616 119.526 -73.4159 87.0382 -62.5752C70.8764 -56.7137 53.8716 -45.205 40.3879 -31.0016C27.2132 -17.1253 19.2604 -2.80862 18.5669 8.27904C18.1773 14.677 17.2737 22.5584 16.229 31.6818C13.5955 54.6542 9.99247 86.1175 11.3402 122.718C11.217 134.069 16.5491 141.533 27.1903 144.919C38.5017 148.518 55.3824 147.541 77.3635 142.014C96.8558 137.107 119.603 128.748 143.137 117.821C165.235 107.562 187.183 95.3768 204.936 83.5057C223.551 71.0586 236.793 59.5753 243.232 50.2957C250.605 40.027 255.605 29.5944 258.521 18.4002C261.146 8.3233 262.007 -2.14018 261.155 -13.5832C259.571 -34.8542 252.157 -56.5163 244.046 -78.6861C236.189 -100.5 222.045 -116.741 207.125 -121.072C202.277 -122.48 197.527 -122.565 193.038 -121.363L193.035 -121.367Z" fill="#917F59"/>
<path d="M82.2433 128.499L82.1064 128.536C62.8292 133.688 48.0099 134.795 38.0628 131.828C28.8525 129.083 24.1305 122.859 24.0288 113.33C21.2963 81.4027 23.9518 50.2087 25.8911 27.4326C26.4983 20.2996 27.0239 14.1405 27.3171 8.84383C27.9482 -2.18851 34.9535 -15.8319 46.5312 -28.5855C58.2759 -41.5228 73.6382 -52.2518 88.6776 -58.0158C102.653 -62.841 118.656 -70.2939 136.254 -80.1656C149.491 -87.5924 163.336 -96.2861 174.242 -104.02C180.629 -108.533 188.033 -109.655 195.661 -107.263C208.997 -103.082 221.569 -88.6272 228.471 -69.5399C235.332 -50.9897 242.143 -31.2582 243.532 -11.9004C244.261 -1.72141 243.487 7.60473 241.164 16.6178C238.589 26.604 234.196 35.9194 227.736 45.0915C216.406 61.9496 181.031 86.6091 139.716 106.448C119.21 116.296 99.3404 123.918 82.2433 128.499ZM182.135 -107.208C179.485 -106.498 176.938 -105.29 174.539 -103.595C163.619 -95.8526 149.754 -87.1459 136.504 -79.7128C118.881 -69.8269 102.848 -62.3632 88.8516 -57.5298C73.8944 -51.7955 58.6054 -41.1197 46.9128 -28.2375C35.4128 -15.5691 28.4586 -2.04224 27.8323 8.87305C27.5379 14.1751 27.0136 20.339 26.4046 27.4751C24.4656 50.2331 21.8133 81.4005 24.5442 113.302C24.645 122.597 29.2424 128.655 38.2096 131.329C48.0638 134.266 62.7879 133.159 81.9713 128.032L82.1082 127.995C99.1741 123.422 119.011 115.812 139.49 105.976C180.729 86.1729 216.017 61.5855 227.306 44.7926C233.732 35.6681 238.099 26.4086 240.659 16.4829C242.967 7.52796 243.737 -1.74567 243.013 -11.8669C241.63 -31.1566 234.829 -50.8473 227.982 -69.3652C221.133 -88.3045 208.689 -102.639 195.504 -106.771C190.907 -108.213 186.39 -108.351 182.14 -107.212L182.135 -107.208Z" fill="#917F59"/>
<path d="M83.3811 115.483C68.5232 119.464 57 120.398 49.0975 118.257C41.5835 116.221 37.6091 111.412 37.283 103.958C32.7598 76.1306 34.6601 43.608 36.0475 19.8579C36.2642 16.1307 36.47 12.6123 36.6298 9.45102C37.2019 -1.57067 43.0459 -14.0796 53.084 -25.7748C63.2074 -37.5649 76.4948 -47.2053 90.4997 -52.9185C100.295 -56.4488 127.172 -67.2193 165.297 -91.0254C170.951 -94.5371 177.444 -95.1859 184.076 -92.895C195.642 -88.9005 206.483 -76.3698 212.367 -60.1953C218.028 -45.0955 224.166 -27.5326 225.347 -10.1699C226.597 8.18032 222.159 24.4473 211.781 39.5655C206.82 47.2501 196.729 56.6697 182.606 66.8042C169.154 76.4552 153.057 86.0662 136.055 94.5971C118.496 103.406 101.432 110.309 86.7052 114.559C85.5793 114.884 84.4695 115.192 83.3787 115.484L83.3811 115.483ZM171.173 -93.0812C169.227 -92.5598 167.343 -91.7385 165.548 -90.6245C159.449 -86.8159 147.01 -79.2555 132.236 -71.4245C116.725 -63.2005 102.743 -56.8269 90.6717 -52.4783C76.7435 -46.7959 63.5205 -37.2037 53.4469 -25.4681C43.4775 -13.853 37.6734 -1.44484 37.1068 9.47245C36.947 12.6338 36.7419 16.1546 36.5257 19.8841C35.1387 43.6162 33.2398 76.1152 37.758 103.895L37.7602 103.922C38.0705 111.154 41.9275 115.823 49.2245 117.799C57.5045 120.042 70.4218 118.765 86.5775 114.102C101.278 109.859 118.312 102.969 135.846 94.172C152.825 85.6523 168.902 76.0543 182.335 66.4187C196.411 56.32 206.458 46.9434 211.392 39.3045C221.711 24.2741 226.12 8.10223 224.88 -10.1349C223.703 -27.4343 217.578 -44.9595 211.929 -60.0262C206.091 -76.0744 195.362 -88.4936 183.926 -92.4433C179.544 -93.958 175.223 -94.1612 171.179 -93.0777L171.173 -93.0812Z" fill="#917F59"/>
<path d="M85.011 102.493C74.461 105.32 65.9376 106.109 60.1269 104.769C54.2914 103.422 51.0681 99.9943 50.5436 94.5771C43.2489 70.4568 45.1412 28.1307 45.9471 10.0529C46.9948 -12.5332 66.0674 -36.3341 92.3271 -47.8242C113.493 -55.8732 137.638 -68.3583 152.064 -75.8156C153.595 -76.6068 155.034 -77.3499 156.362 -78.0351C161.297 -80.559 166.901 -80.7201 172.559 -78.5054C182.332 -74.6811 191.416 -64.0854 196.27 -50.8512C201.386 -37.4556 206.246 -23.0471 207.168 -8.44003C208.151 7.14627 204.445 21.0405 195.832 34.039C187.562 47.5376 162.664 66.6728 132.399 82.7842C117.847 90.5301 103.639 96.7044 91.3104 100.641C89.1396 101.333 87.037 101.953 85.0092 102.496L85.011 102.493ZM160.097 -79.0181C158.884 -78.693 157.703 -78.2376 156.557 -77.6525C155.228 -76.9698 153.792 -76.2273 152.261 -75.4337C137.829 -67.972 113.671 -55.4783 92.4906 -47.4255C66.3831 -36.0018 47.4183 -12.356 46.3776 10.0739C45.5696 28.1342 43.6792 70.429 50.9619 94.4753L50.9728 94.5161C51.4694 99.7427 54.5809 103.051 60.2238 104.352C67.0774 105.932 77.784 104.507 91.1829 100.232C103.488 96.3048 117.673 90.1417 132.2 82.4078C162.399 66.3295 187.234 47.255 195.472 33.8112C214.597 4.94815 206.155 -23.7611 195.871 -50.6955C191.056 -63.8219 182.065 -74.3215 172.405 -78.1013C168.179 -79.7555 163.991 -80.0562 160.101 -79.0139L160.097 -79.0181Z" fill="#917F59"/>
<path d="M86.8982 89.7303C80.4496 91.4582 75.0733 92.0754 71.1749 91.4423C66.977 90.7583 64.4968 88.6621 63.8041 85.212C59.9541 79.1473 57.3158 67.7533 55.9581 51.3462C54.9696 39.3919 54.7146 24.5625 55.2611 10.6582C56.1709 -11.6543 70.7088 -31.6104 94.1512 -42.7265C102.498 -46.1338 111.14 -49.8566 119.497 -53.4571C130.306 -58.1133 140.515 -62.5085 147.422 -65.0437C153.243 -67.154 159.901 -65.7269 166.169 -61.0279C172.111 -56.5735 177.211 -49.4592 180.168 -41.5085C187.268 -23.4006 188.608 -13.4008 188.984 -6.71145C189.704 6.10478 186.725 17.6274 179.878 28.5111C173.1 40.3957 153.522 56.6899 128.785 71.027C112.984 80.1856 98.2729 86.685 86.8989 89.7327L86.8982 89.7303ZM148.819 -65.0807C148.393 -64.9668 147.973 -64.8336 147.555 -64.683C140.657 -62.1528 130.455 -57.7595 119.65 -53.1046C111.291 -49.5035 102.647 -45.7824 94.3066 -42.377C71.0062 -31.3273 56.5482 -11.4955 55.6456 10.671C55.1007 24.562 55.3536 39.3739 56.3407 51.3132C57.6941 67.6854 60.3227 79.0331 64.1481 85.0349L64.1667 85.066L64.1757 85.0996C64.8224 88.3973 67.1961 90.4037 71.2355 91.0633C81.926 92.8071 103.904 85.0011 128.59 70.6933C153.272 56.3891 172.797 40.15 179.548 28.3142C186.354 17.4951 189.313 6.04755 188.599 -6.68801C187.887 -19.3675 183.527 -31.8825 179.806 -41.3679C176.876 -49.2564 171.822 -56.3081 165.938 -60.7189C160.228 -64.9987 154.201 -66.5204 148.819 -65.0783L148.819 -65.0807Z" fill="#917F59"/>
<path d="M89.3334 77.3948C86.6664 78.1094 84.3502 78.4702 82.4703 78.4412C79.7208 78.3958 77.9109 77.5325 77.0923 75.871C71.2666 73.4464 68.2016 60.7388 66.6549 50.4881C64.9115 38.9264 64.1343 24.2626 64.5739 11.2567C64.9663 0.0644 67.638 -9.29162 72.7434 -17.3494C77.9575 -25.5779 85.556 -32.2119 95.9741 -37.6356C112.015 -44.8618 128.702 -50.5194 138.494 -52.0521C143.267 -52.7779 148.584 -50.9861 153.462 -47.011C158.026 -43.291 161.891 -37.8812 164.063 -32.1671C170.183 -17.1801 175.697 2.62898 163.924 22.9788C158.683 33.1726 144.3 46.7293 125.455 59.2304C111.682 68.3677 98.4609 74.9491 89.3309 77.3954L89.3334 77.3948ZM130.196 -49.8774C120.623 -47.3125 108.191 -42.7667 96.1251 -37.3313C85.7698 -31.9424 78.2154 -25.3459 73.0335 -17.1699C67.9605 -9.16447 65.3048 0.135815 64.9161 11.2653C64.0901 35.5726 67.3817 71.5953 77.2817 75.5784L77.3425 75.6032L77.3712 75.6624C78.1147 77.236 79.8328 78.0545 82.4761 78.0975C90.7319 78.2319 107.529 70.7131 125.269 58.9429C144.069 46.4722 158.411 32.965 163.629 22.8108C175.331 2.58275 169.84 -17.1321 163.75 -32.0472L163.749 -32.0521C161.596 -37.7122 157.768 -43.0725 153.248 -46.7553C148.444 -50.6708 143.223 -52.4341 138.546 -51.7238C136.142 -51.3471 133.32 -50.7197 130.194 -49.8822L130.196 -49.8774Z" fill="#917F59"/>
<path d="M93.2331 66.2335C92.0823 66.5419 91.1468 66.6356 90.4669 66.491C88.6218 67.2839 86.8556 67.1216 85.2178 66.0166C80.4243 62.7829 77.673 52.2554 76.2076 43.9899C74.464 34.1574 73.6011 22.1436 73.8952 11.8525C74.2344 0.21142 75.903 -7.92898 79.3062 -14.5452C82.9344 -21.6 88.8153 -27.3209 97.8079 -32.5479C108.223 -37.9734 120.695 -40.5279 129.584 -39.0579C137.562 -37.7039 145.197 -29.7459 147.968 -22.8338C154.174 -8.67786 154.177 4.87344 147.98 17.4384C145.78 22.4896 141.777 28.2141 136.09 34.4489C131.166 39.8467 125.103 45.4646 118.549 50.6941C108.293 58.8818 98.5128 64.8137 93.2342 66.2281L93.2331 66.2335ZM90.4364 66.1853L90.4831 66.1959C91.1366 66.3476 92.045 66.2586 93.167 65.9579C104.786 62.8446 139.187 36.8766 147.709 17.3206C153.869 4.82985 153.864 -8.6358 147.692 -22.711L147.691 -22.7158C144.95 -29.5536 137.407 -37.4257 129.529 -38.7628C120.699 -40.2229 108.299 -37.6798 97.9426 -32.2855C89.0055 -27.0914 83.1625 -21.4115 79.5595 -14.4073C76.1785 -7.83298 74.5201 0.268664 74.1814 11.8634C73.8876 22.1363 74.7519 34.1265 76.491 43.9423C77.9464 52.1513 80.6692 62.6014 85.3749 65.7764C86.937 66.8296 88.6239 66.9746 90.3873 66.2036L90.431 66.1842L90.4364 66.1853Z" fill="#917F59"/>
<path d="M99.0281 60.2538C97.8773 60.5622 96.7552 60.4975 95.6678 60.0529C92.9422 58.9436 89.0652 54.8441 86.0647 41.6278C84.0537 32.7674 82.9843 21.8665 83.2026 12.4654C83.4602 1.35565 83.768 -5.81807 85.854 -11.7186C88.0114 -17.8234 92.0003 -22.3787 99.6268 -27.4378C103.829 -30.226 108.309 -31.0275 112.938 -29.8209C122.947 -27.2076 130.519 -16.0936 131.857 -13.4829C134.356 -8.60515 135.043 -2.62161 133.896 4.30351C132.908 10.2649 130.567 16.936 126.938 24.1379C120.377 37.1528 110.668 49.6654 103.772 57.035C102.148 58.7694 100.562 59.8455 99.0288 60.2562L99.0281 60.2538ZM104.907 -29.604C103.153 -29.1341 101.439 -28.3452 99.7641 -27.2327C92.1884 -22.2053 88.2254 -17.6878 86.087 -11.6369C84.0156 -5.76861 83.7074 1.3846 83.4513 12.4708C83.0533 29.6108 87.2071 56.3378 95.7612 59.8247C98.1898 60.8155 100.822 59.8193 103.587 56.8657C110.472 49.5095 120.163 37.0196 126.712 24.026C130.33 16.8478 132.664 10.1991 133.646 4.26256C134.784 -2.60875 134.106 -8.54059 131.633 -13.3687C130.305 -15.9591 122.791 -26.9909 112.871 -29.5792C110.155 -30.2872 107.491 -30.2937 104.903 -29.6003L104.907 -29.604Z" fill="#917F59"/>
</g>
</svg>
