<svg width="45" height="30" viewBox="0 0 45 30" fill="none" xmlns="http://www.w3.org/2000/svg">
<path d="M36.4348 0H8.56526L0 7.24883L22.5093 30L45 7.24883L36.4348 0ZM32.2265 8.01878L22.4907 17.8592L12.755 8.01878H32.2265ZM42.2223 8.01878L27.4887 22.9296L23.5033 18.9014L34.2424 8.03756L42.2223 8.01878ZM34.2145 6.57277L28.1483 1.44601H35.9146L41.9437 6.57277H34.2145ZM12.9965 6.57277L19.0628 1.44601H25.928L31.985 6.57277H12.9965ZM16.8611 1.44601L10.8041 6.57277H3.0378L9.09479 1.44601H16.8611ZM10.767 8.01878L21.506 18.8826L17.5114 22.9108L2.76841 8.01878H10.767ZM22.5186 19.8967L26.5039 23.9249L22.5186 27.9624L18.5332 23.9249L22.5186 19.8967Z" fill="#917F59"/>
</svg>
