<svg width="95" height="138" viewBox="0 0 95 138" fill="none" xmlns="http://www.w3.org/2000/svg">
<path fill-rule="evenodd" clip-rule="evenodd" d="M32.5417 49.615C34.3344 34.8959 32.0889 20.385 26.5162 7.32744L29.1334 0.00494248C36.7353 14.7788 39.9636 31.6229 38.3167 48.7064C36.3917 49.0093 34.4667 49.3121 32.5417 49.615Z" fill="#BA9D6E"/>
<path fill-rule="evenodd" clip-rule="evenodd" d="M23.5348 86.3651C14.2626 98.9062 2.05132 108.58 -11.8538 114.676L-9.2365 107.353C2.10545 101.498 12.2764 92.9112 19.9371 82.1063C21.1399 83.362 22.238 84.9106 23.5348 86.3651Z" fill="#BA9D6E"/>
<path fill-rule="evenodd" clip-rule="evenodd" d="M59.2076 51.7141L63.527 56.7264C59.2794 57.5204 29.7447 62.9842 26.5852 63.5065L28.7837 57.3556C35.354 56.0705 51.4028 53.2186 59.2076 51.7141Z" fill="black"/>
<path fill-rule="evenodd" clip-rule="evenodd" d="M42.6137 98.1394L49.1316 97.0008C46.3496 93.6942 26.9701 70.7467 24.8575 68.34L22.6589 74.4909C26.926 79.6496 37.4785 92.1749 42.6137 98.1394Z" fill="black"/>
<path fill-rule="evenodd" clip-rule="evenodd" d="M71.0051 65.8405L66.6856 60.8283C65.22 64.9289 55.1172 93.1937 54.0703 96.1227L60.5882 94.9841C62.8391 88.6868 68.3354 73.3095 71.0051 65.8405Z" fill="black"/>
<path fill-rule="evenodd" clip-rule="evenodd" d="M83.4889 52.6318L75.59 53.9374L72.868 61.5529L71.4683 53.4552L63.9469 50.932L71.8982 49.4799L74.5678 42.0109L76.02 49.9621L83.4889 52.6318Z" fill="#BA9D6E"/>
</svg>
