<svg width="87" height="71" viewBox="0 0 87 71" fill="none" xmlns="http://www.w3.org/2000/svg">
<path opacity="0.2" d="M33.5726 5.45121C25.1494 12.356 18.8921 19.2607 14.8008 26.1655C10.9502 32.8322 9.38589 38.5464 10.1079 43.3083L11.1909 45.0941H13.3568L14.4398 44.7369L19.4938 44.3798C23.1037 44.3798 26.112 45.8083 28.5187 48.6655C31.166 51.2845 32.4896 54.3798 32.4896 57.9512C32.4896 61.2845 30.9253 64.2607 27.7967 66.8798C24.6681 69.4988 20.8174 70.8083 16.2448 70.8083C11.9129 70.8083 8.06224 68.5464 4.69295 64.0226C1.56432 59.4988 0 54.2607 0 48.3083C0 38.7845 3.24896 29.7369 9.74689 21.1655C14.3195 14.2607 21.1784 7.47502 30.3237 0.80835L33.5726 5.45121ZM87 5.45121C78.5768 12.356 72.3195 19.2607 68.2282 26.1655C64.3776 32.8322 62.8133 38.5464 63.5353 43.3083L64.6183 45.0941H66.7842L68.2282 44.7369L72.9212 44.3798C76.5311 44.3798 79.5394 45.8083 81.9461 48.6655C84.5934 51.2845 85.917 54.3798 85.917 57.9512C85.917 61.2845 84.3527 64.2607 81.2241 66.8798C78.0954 69.4988 74.2448 70.8083 69.6722 70.8083C65.3403 70.8083 61.4896 68.5464 58.1203 64.0226C54.9917 59.4988 53.4274 54.2607 53.4274 48.3083C53.4274 31.8798 63.5353 16.0464 83.7511 0.80835L87 5.45121Z" fill="#917F59"/>
</svg>
