<svg width="28" height="28" viewBox="0 0 28 28" fill="none" xmlns="http://www.w3.org/2000/svg">
<circle cx="14" cy="14" r="14" fill="#917F59"/>
<path d="M8 23V6H15.1784C15.351 6 15.5648 6.00787 15.8197 6.02361C16.0746 6.03148 16.3172 6.05509 16.5474 6.09444C17.5342 6.24398 18.3564 6.56667 19.0142 7.0625C19.6803 7.55833 20.1777 8.18403 20.5066 8.93958C20.8355 9.69514 21 10.5294 21 11.4424C21 12.3632 20.8355 13.2014 20.5066 13.9569C20.1777 14.7125 19.6803 15.3382 19.0142 15.834C18.3564 16.3299 17.5342 16.6525 16.5474 16.8021C16.3172 16.8336 16.0705 16.8572 15.8074 16.8729C15.5525 16.8887 15.3428 16.8965 15.1784 16.8965H10.5778V23H8ZM10.5778 14.559H15.0797C15.2441 14.559 15.425 14.5512 15.6224 14.5354C15.828 14.5197 16.0212 14.4921 16.2021 14.4528C16.7283 14.3347 17.1518 14.1183 17.4725 13.8035C17.7932 13.4808 18.0234 13.1109 18.1632 12.6937C18.303 12.2766 18.3729 11.8595 18.3729 11.4424C18.3729 11.0252 18.303 10.612 18.1632 10.2028C18.0234 9.78565 17.7932 9.41968 17.4725 9.10486C17.1518 8.78218 16.7283 8.56181 16.2021 8.44375C16.0212 8.39653 15.828 8.36505 15.6224 8.34931C15.425 8.33356 15.2441 8.32569 15.0797 8.32569H10.5778V14.559Z" fill="white"/>
</svg>
