<svg width="28" height="28" viewBox="0 0 28 28" fill="none" xmlns="http://www.w3.org/2000/svg">
<g clip-path="url(#clip0_895_2071)">
<path fill-rule="evenodd" clip-rule="evenodd" d="M18.1195 10.7555C18.201 10.8368 18.2656 10.9333 18.3098 11.0396C18.3539 11.1459 18.3766 11.2599 18.3766 11.375C18.3766 11.4901 18.3539 11.604 18.3098 11.7103C18.2656 11.8166 18.201 11.9132 18.1195 11.9945L12.8695 17.2445C12.7882 17.326 12.6917 17.3906 12.5854 17.4347C12.4791 17.4788 12.3651 17.5015 12.25 17.5015C12.1349 17.5015 12.021 17.4788 11.9146 17.4347C11.8083 17.3906 11.7118 17.326 11.6305 17.2445L9.00551 14.6195C8.92415 14.5381 8.85962 14.4415 8.81559 14.3352C8.77156 14.229 8.7489 14.115 8.7489 14C8.7489 13.8849 8.77156 13.771 8.81559 13.6647C8.85962 13.5584 8.92415 13.4618 9.00551 13.3805C9.08686 13.2991 9.18344 13.2346 9.28974 13.1906C9.39603 13.1465 9.50996 13.1239 9.62501 13.1239C9.74006 13.1239 9.85398 13.1465 9.96028 13.1906C10.0666 13.2346 10.1632 13.2991 10.2445 13.3805L12.25 15.3877L16.8805 10.7555C16.9618 10.674 17.0583 10.6093 17.1646 10.5652C17.271 10.5211 17.3849 10.4984 17.5 10.4984C17.6151 10.4984 17.7291 10.5211 17.8354 10.5652C17.9417 10.6093 18.0382 10.674 18.1195 10.7555Z" fill="#917F59"/>
<path d="M17.9778 4.39781L16.3661 2.74581L17.6173 1.52431L18.7058 2.63906L20.2633 2.61981C20.9375 2.61183 21.6065 2.73873 22.2309 2.99306C22.8553 3.24739 23.4226 3.624 23.8994 4.10076C24.3761 4.57752 24.7527 5.14479 25.0071 5.76921C25.2614 6.39364 25.3883 7.06262 25.3803 7.73681L25.3628 9.29431L26.4758 10.3828C26.9579 10.8539 27.3409 11.4165 27.6024 12.0377C27.8639 12.6589 27.9986 13.3261 27.9986 14.0001C27.9986 14.674 27.8639 15.3412 27.6024 15.9624C27.3409 16.5836 26.9579 17.1463 26.4758 17.6173L25.3611 18.7058L25.3803 20.2633C25.3883 20.9375 25.2614 21.6065 25.0071 22.2309C24.7527 22.8553 24.3761 23.4226 23.8994 23.8994C23.4226 24.3761 22.8553 24.7527 22.2309 25.0071C21.6065 25.2614 20.9375 25.3883 20.2633 25.3803L18.7058 25.3628L17.6173 26.4758C17.1463 26.9579 16.5836 27.3409 15.9624 27.6024C15.3412 27.8639 14.674 27.9986 14.0001 27.9986C13.3261 27.9986 12.6589 27.8639 12.0377 27.6024C11.4165 27.3409 10.8539 26.9579 10.3828 26.4758L9.29431 25.3611L7.73681 25.3803C7.06262 25.3883 6.39364 25.2614 5.76921 25.0071C5.14479 24.7527 4.57752 24.3761 4.10076 23.8994C3.624 23.4226 3.24739 22.8553 2.99306 22.2309C2.73873 21.6065 2.61183 20.9375 2.61981 20.2633L2.63731 18.7058L1.52431 17.6173C1.04225 17.1463 0.659213 16.5836 0.397697 15.9624C0.136181 15.3412 0.00146484 14.674 0.00146484 14.0001C0.00146484 13.3261 0.136181 12.6589 0.397697 12.0377C0.659213 11.4165 1.04225 10.8539 1.52431 10.3828L2.63906 9.29431L2.61981 7.73681C2.61183 7.06262 2.73873 6.39364 2.99306 5.76921C3.24739 5.14479 3.624 4.57752 4.10076 4.10076C4.57752 3.624 5.14479 3.24739 5.76921 2.99306C6.39364 2.73873 7.06262 2.61183 7.73681 2.61981L9.29431 2.63731L10.3828 1.52431C10.8539 1.04225 11.4165 0.659213 12.0377 0.397697C12.6589 0.136181 13.3261 0.00146484 14.0001 0.00146484C14.674 0.00146484 15.3412 0.136181 15.9624 0.397697C16.5836 0.659213 17.1463 1.04225 17.6173 1.52431L16.3661 2.74581C16.058 2.43043 15.69 2.17983 15.2837 2.00873C14.8773 1.83764 14.4409 1.7495 14.0001 1.7495C13.5592 1.7495 13.1228 1.83764 12.7164 2.00873C12.3101 2.17983 11.9421 2.43043 11.6341 2.74581L10.0241 4.39781L7.71406 4.36981C7.27337 4.36488 6.83614 4.44807 6.42806 4.6145C6.01997 4.78093 5.64926 5.02724 5.33771 5.33896C5.02616 5.65067 4.78005 6.02151 4.61383 6.42968C4.44762 6.83785 4.36465 7.27512 4.36981 7.71581L4.39781 10.0223L2.74581 11.6341C2.43043 11.9421 2.17983 12.3101 2.00873 12.7164C1.83764 13.1228 1.7495 13.5592 1.7495 14.0001C1.7495 14.4409 1.83764 14.8773 2.00873 15.2837C2.17983 15.69 2.43043 16.058 2.74581 16.3661L4.39781 17.9761L4.36981 20.2861C4.36488 20.7267 4.44807 21.164 4.6145 21.5721C4.78093 21.9801 5.02724 22.3508 5.33896 22.6624C5.65067 22.974 6.02151 23.2201 6.42968 23.3863C6.83785 23.5525 7.27512 23.6355 7.71581 23.6303L10.0223 23.6023L11.6341 25.2543C11.9421 25.5697 12.3101 25.8203 12.7164 25.9914C13.1228 26.1625 13.5592 26.2506 14.0001 26.2506C14.4409 26.2506 14.8773 26.1625 15.2837 25.9914C15.69 25.8203 16.058 25.5697 16.3661 25.2543L17.9761 23.6023L20.2861 23.6303C20.7267 23.6352 21.164 23.552 21.5721 23.3856C21.9801 23.2192 22.3508 22.9729 22.6624 22.6612C22.974 22.3494 23.2201 21.9786 23.3863 21.5704C23.5525 21.1623 23.6355 20.725 23.6303 20.2843L23.6023 17.9778L25.2543 16.3661C25.5697 16.058 25.8203 15.69 25.9914 15.2837C26.1625 14.8773 26.2506 14.4409 26.2506 14.0001C26.2506 13.5592 26.1625 13.1228 25.9914 12.7164C25.8203 12.3101 25.5697 11.9421 25.2543 11.6341L23.6023 10.0241L23.6303 7.71406C23.6352 7.27337 23.552 6.83614 23.3856 6.42806C23.2192 6.01997 22.9729 5.64926 22.6612 5.33771C22.3494 5.02616 21.9786 4.78005 21.5704 4.61383C21.1623 4.44762 20.725 4.36465 20.2843 4.36981L17.9778 4.39781Z" fill="#917F59"/>
</g>
<defs>
<clipPath id="clip0_895_2071">
<rect width="28" height="28" fill="white"/>
</clipPath>
</defs>
</svg>
