<svg width="28" height="28" viewBox="0 0 28 28" fill="none" xmlns="http://www.w3.org/2000/svg">
<path fill-rule="evenodd" clip-rule="evenodd" d="M11.3748 20.9997C12.6388 20.9997 13.8904 20.7508 15.0581 20.2671C16.2259 19.7834 17.2869 19.0744 18.1807 18.1807C19.0744 17.2869 19.7834 16.2259 20.2671 15.0581C20.7508 13.8904 20.9997 12.6388 20.9997 11.3748C20.9997 10.1109 20.7508 8.85931 20.2671 7.69157C19.7834 6.52382 19.0744 5.46279 18.1807 4.56903C17.2869 3.67528 16.2259 2.96632 15.0581 2.48263C13.8904 1.99893 12.6388 1.74998 11.3748 1.74998C8.82217 1.74998 6.37405 2.76402 4.56904 4.56903C2.76402 6.37405 1.74998 8.82217 1.74998 11.3748C1.74998 13.9275 2.76402 16.3756 4.56904 18.1807C6.37405 19.9857 8.82217 20.9997 11.3748 20.9997ZM22.7497 11.3748C22.7497 14.3916 21.5513 17.2849 19.4181 19.4181C17.2849 21.5513 14.3916 22.7497 11.3748 22.7497C8.35805 22.7497 5.46481 21.5513 3.33161 19.4181C1.19842 17.2849 0 14.3916 0 11.3748C0 8.35805 1.19842 5.46481 3.33161 3.33161C5.46481 1.19842 8.35805 0 11.3748 0C14.3916 0 17.2849 1.19842 19.4181 3.33161C21.5513 5.46481 22.7497 8.35805 22.7497 11.3748Z" fill="#917F59"/>
<path d="M18.1018 20.5483C18.1543 20.6183 18.2103 20.6848 18.2733 20.7495L25.0107 27.4869C25.3388 27.8153 25.784 27.9998 26.2482 28C26.7124 28.0002 27.1577 27.8159 27.4861 27.4878C27.8144 27.1596 27.999 26.7145 27.9992 26.2503C27.9993 25.7861 27.8151 25.3408 27.4869 25.0124L20.7495 18.275C20.687 18.2117 20.6197 18.1532 20.5483 18.1C19.8618 19.0361 19.0369 19.8622 18.1018 20.55V20.5483Z" fill="#917F59"/>
</svg>
