<svg width="33" height="31" viewBox="0 0 33 31" fill="none" xmlns="http://www.w3.org/2000/svg">
<path fill-rule="evenodd" clip-rule="evenodd" d="M31 1H2C1.44771 1 1 1.44772 1 2V20C1 20.5523 1.44772 21 2 21H31C31.5523 21 32 20.5523 32 20V2C32 1.44772 31.5523 1 31 1ZM2 0C0.895431 0 0 0.89543 0 2V20C0 21.1046 0.895431 22 2 22H31C32.1046 22 33 21.1046 33 20V2C33 0.895431 32.1046 0 31 0H2Z" fill="#917F59"/>
<path fill-rule="evenodd" clip-rule="evenodd" d="M12.3949 21.3069C12.6128 21.4765 12.6521 21.7906 12.4826 22.0086L6.09652 30.2192C5.92699 30.4372 5.61285 30.4765 5.39487 30.3069C5.1769 30.1374 5.13763 29.8232 5.30717 29.6053L11.6932 21.3946C11.8628 21.1767 12.1769 21.1374 12.3949 21.3069Z" fill="#917F59"/>
<path fill-rule="evenodd" clip-rule="evenodd" d="M19.6051 21.3069C19.3872 21.4765 19.3479 21.7906 19.5174 22.0086L25.9035 30.2192C26.073 30.4372 26.3872 30.4765 26.6051 30.3069C26.8231 30.1374 26.8624 29.8232 26.6928 29.6053L20.3068 21.3946C20.1372 21.1767 19.8231 21.1374 19.6051 21.3069Z" fill="#917F59"/>
</svg>
