<svg width="28" height="26" viewBox="0 0 28 26" fill="none" xmlns="http://www.w3.org/2000/svg">
<path fill-rule="evenodd" clip-rule="evenodd" d="M7.472 1.49772L5.688 7.95183L5.66 8.06635C2.226 8.60534 0 9.4701 0 10.4454C0 12.0802 6.268 13.4069 14 13.4069C21.732 13.4069 28 12.0802 28 10.4454C28 9.4701 25.774 8.60534 22.34 8.06635C22.3318 8.02792 22.3224 7.98973 22.312 7.95183L20.528 1.49575C20.236 0.443427 19.132 -0.180464 18.05 0.0465852C16.822 0.303249 15.24 0.573733 14 0.573733C12.76 0.573733 11.178 0.305223 9.95 0.0465852C8.868 -0.180464 7.764 0.441453 7.472 1.49772ZM7.502 9.13249C7.5085 9.06791 7.52784 9.00522 7.55892 8.94802C7.58999 8.89083 7.63218 8.84024 7.68308 8.79917C7.73398 8.75809 7.79259 8.72732 7.85555 8.70863C7.91851 8.68994 7.98459 8.68369 8.05 8.69024C9.85 8.87188 11.87 8.97257 14 8.97257C15.9869 8.97715 17.9727 8.88292 19.95 8.69024C20.0821 8.67715 20.214 8.71639 20.3168 8.79932C20.4196 8.88226 20.4847 9.00211 20.498 9.13249C20.5113 9.26287 20.4715 9.39312 20.3875 9.49457C20.3035 9.59602 20.1821 9.66037 20.05 9.67346C18.214 9.85707 16.162 9.95974 14 9.95974C11.838 9.95974 9.786 9.85707 7.95 9.67346C7.88458 9.66704 7.82108 9.64795 7.76314 9.61727C7.7052 9.5866 7.65396 9.54494 7.61234 9.4947C7.57073 9.44445 7.53957 9.38659 7.52063 9.32444C7.5017 9.26229 7.49537 9.19706 7.502 9.13249ZM5 17.3556H9C9.26522 17.3556 9.51957 17.4596 9.70711 17.6447C9.89464 17.8299 10 18.081 10 18.3428V20.3171C10 21.1026 9.68393 21.8558 9.12132 22.4112C8.55871 22.9666 7.79565 23.2786 7 23.2786C6.20435 23.2786 5.44129 22.9666 4.87868 22.4112C4.31607 21.8558 4 21.1026 4 20.3171V18.3428C4 18.081 4.10536 17.8299 4.29289 17.6447C4.48043 17.4596 4.73478 17.3556 5 17.3556ZM2 18.3428C2 17.9973 2.06 17.6636 2.17 17.3556H2C1.73478 17.3556 1.48043 17.2516 1.29289 17.0665C1.10536 16.8813 1 16.6303 1 16.3684C1 16.1066 1.10536 15.8555 1.29289 15.6704C1.48043 15.4853 1.73478 15.3813 2 15.3813H9C9.73047 15.3814 10.4358 15.6445 10.9837 16.1214C11.5316 16.5983 11.8844 17.2562 11.976 17.9716C13.2959 17.5781 14.7041 17.5781 16.024 17.9716C16.1156 17.2562 16.4684 16.5983 17.0163 16.1214C17.5642 15.6445 18.2695 15.3814 19 15.3813H26C26.2652 15.3813 26.5196 15.4853 26.7071 15.6704C26.8946 15.8555 27 16.1066 27 16.3684C27 16.6303 26.8946 16.8813 26.7071 17.0665C26.5196 17.2516 26.2652 17.3556 26 17.3556H25.83C25.94 17.6636 26 17.9973 26 18.3428V20.3171C26 21.6262 25.4732 22.8816 24.5355 23.8073C23.5979 24.7329 22.3261 25.253 21 25.253C19.6739 25.253 18.4021 24.7329 17.4645 23.8073C16.5268 22.8816 16 21.6262 16 20.3171V20.0407L15.58 19.9025C14.5544 19.5653 13.4456 19.5653 12.42 19.9025L12 20.0407V20.3171C12 21.6262 11.4732 22.8816 10.5355 23.8073C9.59785 24.7329 8.32608 25.253 7 25.253C5.67392 25.253 4.40215 24.7329 3.46447 23.8073C2.52678 22.8816 2 21.6262 2 20.3171V18.3428ZM19 17.3556H23C23.2652 17.3556 23.5196 17.4596 23.7071 17.6447C23.8946 17.8299 24 18.081 24 18.3428V20.3171C24 21.1026 23.6839 21.8558 23.1213 22.4112C22.5587 22.9666 21.7956 23.2786 21 23.2786C20.2044 23.2786 19.4413 22.9666 18.8787 22.4112C18.3161 21.8558 18 21.1026 18 20.3171V18.3428C18 18.081 18.1054 17.8299 18.2929 17.6447C18.4804 17.4596 18.7348 17.3556 19 17.3556Z" fill="#917F59"/>
</svg>
