<svg width="38" height="15" viewBox="0 0 38 15" fill="none" xmlns="http://www.w3.org/2000/svg">
<path d="M30.9713 15C29.538 15 28.328 14.6833 27.3413 14.05C26.3546 13.41 25.608 12.5267 25.1013 11.4C24.5946 10.2733 24.3413 8.97333 24.3413 7.5C24.3413 6.02667 24.5946 4.72667 25.1013 3.6C25.608 2.47333 26.3546 1.59333 27.3413 0.96C28.328 0.32 29.538 0 30.9713 0C32.6446 0 34.0113 0.43 35.0713 1.29C36.1313 2.14333 36.858 3.29 37.2513 4.73L35.7513 5.12C35.4446 3.98 34.8946 3.07667 34.1013 2.41C33.308 1.74333 32.2646 1.41 30.9713 1.41C29.8446 1.41 28.908 1.66667 28.1613 2.18C27.4146 2.69333 26.8513 3.41 26.4713 4.33C26.098 5.24333 25.9046 6.3 25.8913 7.5C25.8846 8.7 26.068 9.75667 26.4413 10.67C26.8213 11.5833 27.388 12.3 28.1413 12.82C28.9013 13.3333 29.8446 13.59 30.9713 13.59C32.2646 13.59 33.308 13.2567 34.1013 12.59C34.8946 11.9167 35.4446 11.0133 35.7513 9.88L37.2513 10.27C36.858 11.71 36.1313 12.86 35.0713 13.72C34.0113 14.5733 32.6446 15 30.9713 15Z" fill="#917F59"/>
<path d="M13.2759 14.6999V0.299927H18.8359C19.6425 0.299927 20.3459 0.466593 20.9459 0.799926C21.5459 1.13326 22.0125 1.58326 22.3459 2.14993C22.6792 2.70993 22.8459 3.32993 22.8459 4.00993C22.8459 4.78326 22.6392 5.47326 22.2259 6.07993C21.8125 6.67993 21.2592 7.09659 20.5659 7.32993L20.5459 6.83993C21.4792 7.10659 22.2125 7.57326 22.7459 8.23993C23.2792 8.90659 23.5459 9.71326 23.5459 10.6599C23.5459 11.4933 23.3692 12.2133 23.0159 12.8199C22.6625 13.4199 22.1659 13.8833 21.5259 14.2099C20.8859 14.5366 20.1425 14.6999 19.2959 14.6999H13.2759ZM14.7559 13.2899H18.9359C19.5225 13.2899 20.0492 13.1866 20.5159 12.9799C20.9825 12.7666 21.3492 12.4666 21.6159 12.0799C21.8892 11.6933 22.0259 11.2266 22.0259 10.6799C22.0259 10.1466 21.9025 9.66659 21.6559 9.23993C21.4092 8.81326 21.0725 8.47326 20.6459 8.21993C20.2259 7.95993 19.7459 7.82993 19.2059 7.82993H14.7559V13.2899ZM14.7559 6.43993H18.8259C19.2859 6.43993 19.7059 6.33659 20.0859 6.12993C20.4659 5.91659 20.7659 5.62659 20.9859 5.25993C21.2125 4.89326 21.3259 4.46993 21.3259 3.98993C21.3259 3.30993 21.0892 2.75659 20.6159 2.32993C20.1492 1.90326 19.5525 1.68993 18.8259 1.68993H14.7559V6.43993Z" fill="#917F59"/>
<path d="M0 14.6999L4.96 0.299927H6.91L11.87 14.6999H10.34L5.63 1.11993H6.21L1.53 14.6999H0ZM2.21 11.2099V9.82993H9.65V11.2099H2.21Z" fill="#917F59"/>
</svg>
