<svg width="47" height="47" viewBox="0 0 47 47" fill="none" xmlns="http://www.w3.org/2000/svg">
<circle cx="23.8521" cy="23.8616" r="23" fill="#917F59"/>
<path d="M23.8521 31.9241C21.3981 31.9241 18.6306 31.3798 16.4491 30.4709C15.6489 30.1339 14.9636 29.5888 14.4035 29.1584C14.3757 29.1372 14.3425 29.1241 14.3077 29.1208C14.2729 29.1174 14.2378 29.1238 14.2064 29.1393C14.1751 29.1548 14.1487 29.1788 14.1302 29.2085C14.1118 29.2382 14.102 29.2725 14.1021 29.3075V29.8972C14.1021 31.213 15.2031 32.3919 17.2024 33.2169C18.9906 33.9552 21.3522 34.3616 23.8521 34.3616C26.3519 34.3616 28.713 33.9552 30.5017 33.2169C32.501 32.3928 33.6021 31.213 33.6021 29.8972V29.3075C33.6021 29.2725 33.5923 29.2382 33.5739 29.2085C33.5554 29.1788 33.529 29.1548 33.4977 29.1393C33.4663 29.1238 33.4312 29.1174 33.3964 29.1208C33.3616 29.1241 33.3284 29.1372 33.3006 29.1584C32.7405 29.5883 32.0552 30.1339 31.2546 30.4709C29.073 31.3798 26.306 31.9241 23.8521 31.9241Z" fill="white"/>
<path d="M33.6021 17.7917C33.5641 16.4956 32.4686 15.3355 30.5083 14.5175C28.7149 13.7722 26.3524 13.3616 23.8521 13.3616C21.3517 13.3616 18.9892 13.7722 17.2 14.5175C15.2416 15.3336 14.1461 16.4914 14.1063 17.7842L14.1021 18.6116C14.1021 18.912 14.3458 19.3841 14.7878 19.7708C15.3096 20.2269 16.0839 20.6769 17.0275 21.0706C19.0352 21.9097 21.5866 22.4084 23.8521 22.4084C26.1175 22.4084 28.6689 21.9078 30.6766 21.0688C31.6202 20.675 32.3946 20.225 32.9163 19.7689C33.3583 19.3845 33.6021 18.9125 33.6021 18.6116V17.7917Z" fill="white"/>
<path d="M31.2546 22.4553C29.0735 23.3661 26.306 23.9084 23.8521 23.9084C21.3982 23.9084 18.6307 23.3661 16.4491 22.4553C15.6489 22.1202 14.9636 21.5745 14.4035 21.1428C14.3756 21.1215 14.3422 21.1084 14.3072 21.1051C14.2722 21.1018 14.237 21.1084 14.2056 21.1241C14.1742 21.1398 14.1478 21.1641 14.1295 21.1941C14.1112 21.2241 14.1017 21.2586 14.1021 21.2938V22.7366C14.1021 23.037 14.3458 23.4153 14.7878 23.802C15.3096 24.2586 16.0839 24.7081 17.0275 25.1024C19.0352 25.94 21.5866 26.4397 23.8521 26.4397C26.1175 26.4397 28.6689 25.9391 30.6766 25.1005C31.6202 24.7063 32.3946 24.2567 32.9163 23.8002C33.3583 23.4149 33.6021 23.037 33.6021 22.7366V21.2938C33.6021 21.2588 33.5923 21.2245 33.5739 21.1948C33.5554 21.165 33.529 21.1411 33.4977 21.1256C33.4663 21.1101 33.4313 21.1036 33.3964 21.107C33.3616 21.1104 33.3284 21.1234 33.3007 21.1447C32.7405 21.5745 32.0552 22.1202 31.2546 22.4553Z" fill="white"/>
<path d="M31.2546 26.4866C29.073 27.3964 26.306 27.9397 23.8521 27.9397C21.3981 27.9397 18.6306 27.3964 16.4491 26.4866C15.6489 26.1505 14.9636 25.6048 14.4035 25.1741C14.3756 25.1528 14.3423 25.1397 14.3074 25.1364C14.2725 25.133 14.2374 25.1395 14.206 25.1551C14.1746 25.1708 14.1482 25.1949 14.1299 25.2247C14.1115 25.2546 14.1019 25.289 14.1021 25.3241V26.7209C14.1021 27.0214 14.3458 27.3992 14.7874 27.7855C15.3091 28.242 16.0839 28.6916 17.0275 29.0858C19.0352 29.9234 21.5861 30.4241 23.8521 30.4241C26.118 30.4241 28.6689 29.9234 30.6766 29.0848C31.6202 28.6906 32.3946 28.2411 32.9163 27.7845C33.3583 27.3978 33.6021 27.0195 33.6021 26.7209V25.3241C33.6021 25.2891 33.5923 25.2548 33.5739 25.2251C33.5554 25.1953 33.529 25.1714 33.4977 25.1559C33.4663 25.1404 33.4312 25.1339 33.3964 25.1373C33.3616 25.1407 33.3284 25.1538 33.3006 25.175C32.7405 25.6048 32.0552 26.1505 31.2546 26.4866Z" fill="white"/>
</svg>
