<svg width="37" height="15" viewBox="0 0 37 15" fill="none" xmlns="http://www.w3.org/2000/svg">
<path fill-rule="evenodd" clip-rule="evenodd" d="M18.5 14.5822C22.9081 14.5822 27.2263 13.336 30.9566 10.9874L37 7.18232L31.8629 4.11977C27.8017 1.69866 23.2195 0.285959 18.5 0C14.0876 0 9.7607 1.21744 5.99566 3.5183L0 7.18232L5.18934 10.3758C9.21259 12.8517 13.7846 14.2965 18.5 14.5822ZM2.81438 7.1867L5.96045 9.12277C9.76484 11.464 14.0864 12.8335 18.5444 13.1109C22.6596 13.1026 26.6897 11.9353 30.1726 9.74233L34.1842 7.21657L31.1095 5.38353C27.263 3.09043 22.9247 1.74925 18.4556 1.47134C14.3293 1.47948 10.2843 2.62175 6.76287 4.77373L2.81438 7.1867Z" fill="#917F59"/>
</svg>
