<svg width="28" height="20" viewBox="0 0 28 20" fill="none" xmlns="http://www.w3.org/2000/svg">
<path d="M18.1813 9.99999C17.0109 9.99999 15.8859 9.47726 14.9995 8.53408C14.1416 7.61363 13.6131 6.38067 13.5222 5.06818C13.4256 3.67045 13.8518 2.38068 14.7211 1.44318C15.5904 0.511363 16.8177 0 18.1813 0C19.5336 0 20.7609 0.517045 21.6302 1.44886C22.5109 2.39204 22.937 3.67613 22.8347 5.06249C22.7381 6.37499 22.2154 7.60795 21.3575 8.5284C20.4768 9.47726 19.3518 9.99999 18.1813 9.99999ZM18.1813 1.81818C17.3291 1.81818 16.5734 2.125 16.0563 2.68181C15.5222 3.25568 15.2779 4.03409 15.3404 4.93749C15.4029 5.83522 15.7552 6.67613 16.3347 7.29545C16.8688 7.86931 17.5279 8.18181 18.1813 8.18181C18.8404 8.18181 19.4938 7.86363 20.0279 7.29545C20.6075 6.67613 20.9597 5.8409 21.0222 4.93749C21.0847 4.0625 20.829 3.26136 20.295 2.69318C19.7779 2.125 19.0222 1.81818 18.1813 1.81818Z" fill="#917F59"/>
<path d="M25.6705 20H10.6933C10.1989 20 9.7444 19.7784 9.44327 19.392C9.13077 18.9886 9.01713 18.4432 9.14213 17.9261C9.6194 16.0057 10.8069 14.4148 12.5683 13.3182C14.1308 12.3466 16.1251 11.8125 18.1762 11.8125C20.2671 11.8125 22.2103 12.3239 23.7842 13.2955C25.5512 14.3807 26.7387 15.9829 27.216 17.9261C27.341 18.4432 27.2273 18.9886 26.9148 19.392C26.6194 19.7784 26.1648 20 25.6705 20ZM10.9603 18.1818H25.4092C24.4717 14.8295 20.9546 13.6364 18.1819 13.6364C15.4205 13.6364 11.9092 14.8295 10.9603 18.1818Z" fill="#917F59"/>
<path d="M7.44291 10.2273C5.44291 10.2273 3.68723 8.3693 3.52245 6.08521C3.43723 4.91476 3.80086 3.83521 4.5395 3.03976C5.27245 2.25567 6.30086 1.82385 7.43722 1.82385C8.5679 1.82385 9.59631 2.26135 10.3293 3.05112C11.0736 3.85226 11.4372 4.9318 11.352 6.09089C11.1986 8.3693 9.43722 10.2273 7.44291 10.2273ZM7.44291 3.63635C6.81791 3.63635 6.26109 3.86362 5.87472 4.2784C5.477 4.70453 5.2895 5.28408 5.34063 5.95453C5.43723 7.28407 6.39745 8.40907 7.44291 8.40907C8.48836 8.40907 9.45427 7.28407 9.54518 5.95453C9.59063 5.30112 9.39745 4.71021 9.0054 4.28408C8.61904 3.86362 8.06222 3.63635 7.44291 3.63635Z" fill="#917F59"/>
<path d="M7.84094 18.1818H1.46027C1.01141 18.1818 0.596634 17.9772 0.318225 17.6306C0.0341343 17.267 -0.0681384 16.767 0.0454979 16.3011C0.437543 14.7159 1.41481 13.4091 2.86368 12.5113C4.14208 11.7216 5.76708 11.2841 7.43753 11.2841C8.86935 11.2841 10.0909 11.5227 11.1705 12.017C11.625 12.2272 11.8296 12.767 11.6193 13.2216C11.4091 13.6761 10.8693 13.8806 10.4148 13.6704C9.57958 13.2897 8.60799 13.1022 7.44322 13.1022C5.36936 13.1022 2.75004 13.9659 1.9205 16.3693H7.84094C8.34094 16.3693 8.75003 16.7784 8.75003 17.2784C8.75003 17.7784 8.34094 18.1818 7.84094 18.1818Z" fill="#917F59"/>
</svg>
