<svg width="28" height="28" viewBox="0 0 28 28" fill="none" xmlns="http://www.w3.org/2000/svg">
<path d="M24.0548 22.1813H24.0105L23.9662 22.1769C23.816 22.1612 23.6687 22.1244 23.5287 22.0675L20.4257 20.9677L20.4039 20.9584C20.3367 20.9295 20.2642 20.9151 20.1911 20.9163C20.1218 20.9162 20.0531 20.9286 19.9882 20.953C19.9144 20.9809 19.2352 21.2363 18.5215 21.432C18.1349 21.5381 16.789 21.8843 15.7089 21.8843C12.9483 21.8843 10.3671 20.8234 8.44152 18.8967C7.50141 17.9622 6.75588 16.8506 6.24805 15.6262C5.74022 14.4018 5.48017 13.0888 5.48293 11.7633C5.4836 11.0717 5.55822 10.3822 5.70551 9.70649C6.18567 7.48673 7.45879 5.46602 9.28973 4.01899C11.1681 2.54632 13.4867 1.74726 15.8736 1.75001C18.7288 1.75001 21.3893 2.84376 23.3657 4.82235C25.2339 6.69649 26.2576 9.16071 26.2494 11.7606C26.2494 13.6934 25.6718 15.5822 24.5907 17.1845L24.5607 17.2266C24.5404 17.2534 24.5213 17.2813 24.5032 17.3113C24.4775 17.3562 24.4595 17.3928 24.4486 17.4207L25.3088 20.4788C25.3399 20.584 25.3597 20.6921 25.3679 20.8015V20.8688C25.3679 21.0412 25.3339 21.2119 25.2679 21.3712C25.2019 21.5304 25.1052 21.6751 24.9832 21.797C24.8613 21.9189 24.7165 22.0156 24.5572 22.0815C24.3979 22.1474 24.2272 22.1813 24.0548 22.1813ZM21.0525 19.3348L23.4002 20.1666L22.7248 17.7669C22.6154 17.3699 22.7046 16.9187 22.9928 16.4249L22.9982 16.4161C23.0449 16.3377 23.0957 16.2617 23.1503 16.1886C24.0287 14.8779 24.4977 13.3357 24.4978 11.7578C24.5049 9.62501 23.6616 7.60157 22.1243 6.05829C20.4804 4.40837 18.2634 3.50001 15.8736 3.50001C11.7971 3.50001 8.24028 6.26665 7.41559 10.0778C7.2948 10.6317 7.23357 11.1969 7.23293 11.7638C7.23293 16.38 11.0354 20.1359 15.7095 20.1359C16.3947 20.1359 17.4048 19.9259 18.0611 19.746C18.7075 19.5688 19.3446 19.3277 19.3736 19.3178C19.9168 19.1123 20.5173 19.1184 21.0563 19.3348H21.0525Z" fill="#917F59"/>
<path d="M3.93157 26.2499C3.63238 26.2496 3.3421 26.148 3.10798 25.9617L3.09103 25.9481C2.91126 25.7973 2.77519 25.6011 2.69699 25.3799C2.6188 25.1586 2.60133 24.9205 2.64642 24.6903C2.80282 23.8776 3.13204 22.162 3.25564 21.5271V21.5238C2.34413 20.1659 1.82572 18.5824 1.75768 16.9483C1.68964 15.3143 2.07462 13.6932 2.87009 12.2642C2.98293 12.0611 3.17181 11.9112 3.39519 11.8474C3.61856 11.7836 3.85813 11.8112 4.06118 11.924C4.26424 12.0368 4.41415 12.2257 4.47794 12.4491C4.54174 12.6725 4.51418 12.912 4.40134 13.1151C3.75878 14.2618 3.4476 15.5646 3.50255 16.878C3.55749 18.1913 3.97641 19.4635 4.71251 20.5526L4.71579 20.5575C4.91759 20.8621 5.11064 21.2313 5.01712 21.6627C4.9947 21.7721 4.74368 23.0704 4.51946 24.2418L6.85407 23.328C7.27413 23.1614 7.74288 23.1669 8.15892 23.3433C9.15696 23.7305 10.1927 23.935 11.1558 23.935H11.164C12.5438 23.9332 13.8986 23.5672 15.0917 22.8741C15.1912 22.8166 15.3011 22.7793 15.4151 22.7644C15.5291 22.7494 15.6449 22.757 15.756 22.7868C15.867 22.8166 15.9711 22.8679 16.0623 22.938C16.1534 23.008 16.2299 23.0952 16.2874 23.1948C16.3448 23.2944 16.3821 23.4043 16.3971 23.5183C16.4121 23.6323 16.4045 23.7481 16.3747 23.8591C16.3449 23.9702 16.2935 24.0742 16.2235 24.1654C16.1535 24.2566 16.0662 24.3331 15.9667 24.3906C14.5058 25.2371 12.8475 25.6832 11.1591 25.6839H11.1487C9.96743 25.6839 8.70743 25.4362 7.5054 24.9681L7.48134 24.9582L4.42431 26.1526C4.26947 26.2173 4.10323 26.2504 3.9354 26.2499H3.93157ZM4.36525 25.0184C4.36525 25.0184 4.36525 25.0184 4.36525 25.0227C4.36525 25.0271 4.3647 25.0195 4.36525 25.0184ZM3.30321 21.2854C3.30321 21.2914 3.30321 21.2974 3.29939 21.3035C3.30103 21.2952 3.30212 21.2892 3.30321 21.2854Z" fill="#917F59"/>
</svg>
